<svg width="50" height="50" viewBox="0 0 50 50" fill="none" xmlns="http://www.w3.org/2000/svg">
<path d="M43.7498 41.6667H8.33317V37.5H14.5832C15.1357 37.5 15.6656 37.2805 16.0563 36.8898C16.447 36.4991 16.6665 35.9692 16.6665 35.4167C16.6665 34.8641 16.447 34.3342 16.0563 33.9435C15.6656 33.5528 15.1357 33.3333 14.5832 33.3333H8.33317V29.1667H22.9165C23.469 29.1667 23.9989 28.9472 24.3896 28.5565C24.7803 28.1658 24.9998 27.6359 24.9998 27.0833C24.9998 26.5308 24.7803 26.0009 24.3896 25.6102C23.9989 25.2195 23.469 25 22.9165 25H8.33317V20.8333H31.2498C31.8024 20.8333 32.3323 20.6138 32.723 20.2231C33.1137 19.8324 33.3332 19.3025 33.3332 18.75C33.3332 18.1975 33.1137 17.6676 32.723 17.2769C32.3323 16.8862 31.8024 16.6667 31.2498 16.6667H8.33317V12.5H39.5832C40.1357 12.5 40.6656 12.2805 41.0563 11.8898C41.447 11.4991 41.6665 10.9692 41.6665 10.4167C41.6665 9.86414 41.447 9.33423 41.0563 8.94353C40.6656 8.55283 40.1357 8.33334 39.5832 8.33334H8.33317V6.25001C8.33317 5.69747 8.11368 5.16757 7.72298 4.77687C7.33228 4.38617 6.80237 4.16667 6.24984 4.16667C5.6973 4.16667 5.1674 4.38617 4.7767 4.77687C4.386 5.16757 4.1665 5.69747 4.1665 6.25001V43.75C4.1665 44.3025 4.386 44.8324 4.7767 45.2231C5.1674 45.6138 5.6973 45.8333 6.24984 45.8333H43.7498C44.3024 45.8333 44.8323 45.6138 45.223 45.2231C45.6137 44.8324 45.8332 44.3025 45.8332 43.75C45.8332 43.1975 45.6137 42.6676 45.223 42.2769C44.8323 41.8862 44.3024 41.6667 43.7498 41.6667Z" fill="url(#paint0_linear_415_1361)"/>
<defs>
<linearGradient id="paint0_linear_415_1361" x1="24.9998" y1="4.16667" x2="24.9998" y2="45.8333" gradientUnits="userSpaceOnUse">
<stop stop-color="#AFF1D1"/>
<stop offset="1" stop-color="#006493"/>
</linearGradient>
</defs>
</svg>
