<svg width="50" height="50" viewBox="0 0 50 50" fill="none" xmlns="http://www.w3.org/2000/svg">
<path d="M41.4378 19.8958C41.2647 19.5523 40.9998 19.2633 40.6725 19.0611C40.3453 18.8588 39.9684 18.7512 39.5837 18.75H29.167V6.24999C29.1893 5.79308 29.0607 5.34152 28.8009 4.96499C28.5411 4.58847 28.1646 4.30792 27.7295 4.16666C27.3112 4.02904 26.8601 4.02749 26.4409 4.16224C26.0217 4.29699 25.6559 4.5611 25.3962 4.91666L8.72949 27.8333C8.52067 28.1351 8.39528 28.4867 8.36601 28.8526C8.33674 29.2184 8.40464 29.5855 8.56282 29.9167C8.70849 30.2953 8.96155 30.6232 9.29093 30.86C9.6203 31.0969 10.0117 31.2324 10.417 31.25H20.8337V43.75C20.834 44.1893 20.9732 44.6173 21.2314 44.9728C21.4895 45.3282 21.8535 45.593 22.2712 45.7292C22.4805 45.794 22.6979 45.8291 22.917 45.8333C23.2457 45.8342 23.57 45.7572 23.8633 45.6088C24.1565 45.4603 24.4105 45.2446 24.6045 44.9792L41.2712 22.0625C41.4956 21.7517 41.63 21.3849 41.6594 21.0026C41.6888 20.6203 41.6121 20.2373 41.4378 19.8958ZM25.0003 37.3333V29.1667C25.0003 28.6141 24.7808 28.0842 24.3901 27.6935C23.9994 27.3028 23.4695 27.0833 22.917 27.0833H14.5837L25.0003 12.6667V20.8333C25.0003 21.3859 25.2198 21.9158 25.6105 22.3065C26.0012 22.6972 26.5311 22.9167 27.0837 22.9167H35.417L25.0003 37.3333Z" fill="url(#paint0_linear_429_2383)"/>
<defs>
<linearGradient id="paint0_linear_429_2383" x1="25.0124" y1="4.0623" x2="25.0124" y2="45.8333" gradientUnits="userSpaceOnUse">
<stop stop-color="#AFF1D1"/>
<stop offset="1" stop-color="#006493"/>
</linearGradient>
</defs>
</svg>
