<svg width="11" height="12" viewBox="0 0 11 12" fill="#525760" xmlns="http://www.w3.org/2000/svg">
<path d="M6.79704 9.20835C6.72856 9.20858 6.66091 9.19347 6.59904 9.16412C6.53718 9.13478 6.48267 9.09194 6.43954 9.03876L4.22579 6.28876C4.15837 6.20675 4.12152 6.10388 4.12152 5.99772C4.12152 5.89156 4.15837 5.78869 4.22579 5.70668L6.51745 2.95668C6.59525 2.86308 6.70704 2.80422 6.82824 2.79305C6.94943 2.78187 7.0701 2.8193 7.1637 2.8971C7.2573 2.97489 7.31616 3.08669 7.32734 3.20788C7.33851 3.32908 7.30108 3.44975 7.22329 3.54335L5.17454 6.00001L7.15454 8.45668C7.21058 8.52396 7.24618 8.60588 7.25713 8.69276C7.26807 8.77963 7.2539 8.86783 7.2163 8.9469C7.17869 9.02598 7.11921 9.09262 7.04491 9.13896C6.97061 9.18529 6.88459 9.20937 6.79704 9.20835Z" />
</svg>
