<svg width="50" height="50" viewBox="0 0 50 50" fill="none" xmlns="http://www.w3.org/2000/svg">
<path d="M29.7711 29.5625L22.9169 36.4167L20.2294 33.7292C20.0357 33.5339 19.8053 33.3789 19.5514 33.2731C19.2976 33.1674 19.0252 33.1129 18.7502 33.1129C18.4752 33.1129 18.2029 33.1674 17.949 33.2731C17.6951 33.3789 17.4647 33.5339 17.2711 33.7292C16.883 34.1195 16.6652 34.6475 16.6652 35.1979C16.6652 35.7483 16.883 36.2763 17.2711 36.6667L21.4377 40.8333C21.6314 41.0286 21.8618 41.1836 22.1157 41.2894C22.3696 41.3951 22.6419 41.4496 22.9169 41.4496C23.1919 41.4496 23.4642 41.3951 23.7181 41.2894C23.972 41.1836 24.2024 41.0286 24.3961 40.8333L32.7294 32.5C33.1174 32.1097 33.3352 31.5816 33.3352 31.0312C33.3352 30.4809 33.1174 29.9528 32.7294 29.5625C32.5357 29.3672 32.3053 29.2122 32.0514 29.1065C31.7976 29.0007 31.5252 28.9463 31.2502 28.9463C30.9752 28.9463 30.7029 29.0007 30.449 29.1065C30.1951 29.2122 29.9647 29.3672 29.7711 29.5625ZM38.3752 17.3333C37.1009 14.4079 34.9022 11.9812 32.1163 10.4253C29.3305 8.86941 26.1112 8.27015 22.9521 8.71942C19.7929 9.1687 16.8684 10.6417 14.6267 12.9126C12.3851 15.1835 10.9501 18.127 10.5419 21.2917C8.80438 21.7228 7.25188 22.7019 6.11427 24.0842C4.97665 25.4665 4.31441 27.1783 4.2256 28.9663C4.13678 30.7543 4.62611 32.5234 5.62114 34.0116C6.61617 35.4998 8.06399 36.628 9.75022 37.2292C10.0163 37.3688 10.3095 37.4492 10.6096 37.4649C10.9097 37.4806 11.2097 37.4311 11.4889 37.32C11.7681 37.2088 12.0199 37.0385 12.2271 36.8209C12.4344 36.6032 12.592 36.3433 12.6893 36.059C12.7866 35.7747 12.8213 35.4726 12.7909 35.1737C12.7605 34.8747 12.6658 34.5858 12.5132 34.3269C12.3607 34.068 12.1539 33.8451 11.9072 33.6736C11.6604 33.5021 11.3794 33.386 11.0836 33.3333C10.2715 33.0398 9.57077 32.5013 9.07813 31.7921C8.58549 31.083 8.3253 30.2384 8.33356 29.375C8.33356 28.2699 8.77254 27.2101 9.55395 26.4287C10.3353 25.6473 11.3952 25.2083 12.5002 25.2083C13.0528 25.2083 13.5827 24.9888 13.9734 24.5981C14.3641 24.2074 14.5836 23.6775 14.5836 23.125C14.5938 20.6628 15.4758 18.2837 17.0733 16.41C18.6707 14.5363 20.8803 13.289 23.3099 12.8895C25.7395 12.49 28.2321 12.964 30.3455 14.2276C32.4588 15.4911 34.0563 17.4624 34.8544 19.7917C34.9766 20.1458 35.192 20.4604 35.478 20.7024C35.764 20.9444 36.1099 21.1047 36.4794 21.1667C37.867 21.4289 39.125 22.1533 40.0482 23.2219C40.9714 24.2906 41.5056 25.6403 41.5636 27.0513C41.6215 28.4623 41.2 29.8514 40.3675 30.9922C39.5351 32.1329 38.3408 32.9581 36.9794 33.3333C36.4269 33.4024 35.9244 33.6881 35.5825 34.1277C35.2407 34.5672 35.0874 35.1245 35.1565 35.6771C35.2255 36.2296 35.5113 36.7321 35.9508 37.0739C36.3903 37.4158 36.9477 37.5691 37.5002 37.5H38.0211C40.2135 36.9206 42.1571 35.6416 43.5565 33.8572C44.9559 32.0728 45.7348 29.8804 45.7749 27.6131C45.8149 25.3457 45.114 23.1272 43.7785 21.2944C42.443 19.4617 40.5459 18.1148 38.3752 17.4583V17.3333Z" fill="url(#paint0_linear_429_2377)"/>
<defs>
<linearGradient id="paint0_linear_429_2377" x1="24.9959" y1="8.57413" x2="24.9959" y2="41.4496" gradientUnits="userSpaceOnUse">
<stop stop-color="#AFF1D1"/>
<stop offset="1" stop-color="#006493"/>
</linearGradient>
</defs>
</svg>
