<svg width="50" height="50" viewBox="0 0 50 50" fill="none" xmlns="http://www.w3.org/2000/svg">
<path d="M46.8747 30.2083C46.8747 29.1033 46.4357 28.0435 45.6543 27.2621C44.8729 26.4807 43.8131 26.0417 42.708 26.0417H30.208C29.1029 26.0417 28.0431 26.4807 27.2617 27.2621C26.4803 28.0435 26.0413 29.1033 26.0413 30.2083H19.7913V23.9583H24.6455C26.4559 23.9614 28.2084 23.3201 29.5893 22.1493C30.9701 20.9785 31.8894 19.3546 32.1826 17.5681C32.4757 15.7815 32.1237 13.949 31.1894 12.3983C30.255 10.8476 28.7994 9.67989 27.083 9.10417C26.1303 7.11759 24.5723 5.48422 22.6329 4.43886C20.6935 3.39351 18.4726 2.98999 16.2894 3.28633C14.1062 3.58267 12.0732 4.5636 10.4826 6.0881C8.89207 7.61261 7.82582 9.60219 7.43717 11.7708C6.02631 12.2346 4.82667 13.1855 4.05322 14.4533C3.27976 15.7211 2.98303 17.2229 3.2162 18.6896C3.44936 20.1563 4.19719 21.4921 5.32568 22.4575C6.45416 23.423 7.88956 23.955 9.37467 23.9583H15.6247V40.625C15.6247 41.1775 15.8442 41.7074 16.2349 42.0981C16.6256 42.4888 17.1555 42.7083 17.708 42.7083H26.0413C26.0413 43.8134 26.4803 44.8732 27.2617 45.6546C28.0431 46.436 29.1029 46.875 30.208 46.875H42.708C43.8131 46.875 44.8729 46.436 45.6543 45.6546C46.4357 44.8732 46.8747 43.8134 46.8747 42.7083V38.5417C46.8671 37.808 46.6658 37.0893 46.2913 36.4583C46.6658 35.8274 46.8671 35.1087 46.8747 34.375V30.2083ZM9.37467 19.7917C8.82214 19.7917 8.29223 19.5722 7.90153 19.1815C7.51083 18.7908 7.29134 18.2609 7.29134 17.7083C7.29134 17.1558 7.51083 16.6259 7.90153 16.2352C8.29223 15.8445 8.82214 15.625 9.37467 15.625C9.92721 15.625 10.4571 15.4055 10.8478 15.0148C11.2385 14.6241 11.458 14.0942 11.458 13.5417C11.4412 12.0549 11.955 10.6109 12.9071 9.46883C13.8592 8.3268 15.1872 7.56161 16.6528 7.31066C18.1183 7.05972 19.6253 7.33946 20.9031 8.09965C22.1809 8.85984 23.1459 10.0507 23.6247 11.4583C23.7469 11.8125 23.9623 12.1271 24.2483 12.369C24.5343 12.611 24.8802 12.7714 25.2497 12.8333C26.068 12.9688 26.8098 13.3956 27.3381 14.035C27.8665 14.6744 28.1459 15.4833 28.1247 16.3125C28.1247 17.2352 27.7581 18.1202 27.1056 18.7726C26.4532 19.4251 25.5682 19.7917 24.6455 19.7917H9.37467ZM26.0413 38.5417H19.7913V34.375H26.0413C26.049 35.1087 26.2502 35.8274 26.6247 36.4583C26.2502 37.0893 26.049 37.808 26.0413 38.5417ZM30.208 42.7083V38.5417H42.708V42.7083H30.208ZM30.208 34.375V30.2083H42.708V34.375H30.208Z" fill="url(#paint0_linear_430_2391)"/>
<defs>
<linearGradient id="paint0_linear_430_2391" x1="25.0067" y1="3.19167" x2="25.0067" y2="46.875" gradientUnits="userSpaceOnUse">
<stop stop-color="#AFF1D1"/>
<stop offset="1" stop-color="#006493"/>
</linearGradient>
</defs>
</svg>
