<svg width="50" height="50" viewBox="0 0 50 50" fill="none" xmlns="http://www.w3.org/2000/svg">
<path d="M38.3753 15.0417C37.1024 12.1167 34.9055 9.68974 32.1213 8.13276C29.3371 6.57578 26.1192 5.97465 22.9606 6.42147C19.8021 6.8683 16.8772 8.33844 14.6342 10.6066C12.3911 12.8748 10.9536 15.8159 10.542 18.9792C8.79657 19.4043 7.23529 20.382 6.0908 21.7667C4.94632 23.1513 4.27991 24.8687 4.1909 26.6629C4.1019 28.4571 4.59506 30.232 5.59688 31.7231C6.5987 33.2143 8.05555 34.3417 9.75029 34.9375C9.96635 35.0041 10.1909 35.0391 10.417 35.0417C10.9695 35.1301 11.5345 34.9954 11.9877 34.6672C12.4409 34.339 12.7452 33.8442 12.8336 33.2917C12.922 32.7391 12.7873 32.1741 12.4591 31.7209C12.1309 31.2677 11.6362 30.9634 11.0836 30.875C10.298 30.5914 9.61577 30.0783 9.1254 29.4022C8.63503 28.726 8.35917 27.9182 8.33362 27.0833C8.33362 25.9783 8.77261 24.9185 9.55401 24.1371C10.3354 23.3556 11.3952 22.9167 12.5003 22.9167C13.0528 22.9167 13.5827 22.6972 13.9734 22.3065C14.3641 21.9158 14.5836 21.3859 14.5836 20.8333C14.5889 18.3693 15.4675 15.987 17.0633 14.1095C18.6591 12.2321 20.8688 10.9811 23.2998 10.5789C25.7307 10.1767 28.2256 10.6492 30.3411 11.9125C32.4566 13.1759 34.0557 15.1482 34.8545 17.4792C34.9735 17.8372 35.1876 18.1561 35.4738 18.4019C35.76 18.6478 36.1076 18.8113 36.4795 18.875C37.7322 19.1017 38.8859 19.7057 39.7861 20.606C40.6863 21.5063 41.29 22.6601 41.5166 23.9129C41.7431 25.1657 41.5817 26.4579 41.0538 27.6164C40.5259 28.775 39.6568 29.7447 38.5628 30.3958C38.0821 30.6721 37.7308 31.128 37.5863 31.6633C37.4417 32.1985 37.5157 32.7693 37.792 33.25C38.0682 33.7307 38.5241 34.082 39.0594 34.2265C39.5947 34.3711 40.1654 34.2971 40.6461 34.0208C42.2257 33.104 43.5365 31.7879 44.447 30.2046C45.3575 28.6213 45.8357 26.8264 45.8336 25C45.8273 22.7586 45.0982 20.579 43.7545 18.785C42.4109 16.991 40.5244 15.6782 38.3753 15.0417ZM30.8128 24.2917C30.0231 24.4634 29.2059 24.465 28.4156 24.2961C27.6253 24.1273 26.88 23.792 26.2295 23.3125C25.8727 23.0518 25.4422 22.9113 25.0003 22.9113C24.5584 22.9113 24.1279 23.0518 23.7711 23.3125C23.1212 23.7932 22.376 24.1292 21.5854 24.2981C20.7949 24.467 19.9774 24.4648 19.1878 24.2917C18.8835 24.226 18.5683 24.2293 18.2655 24.3014C17.9627 24.3735 17.6798 24.5125 17.4378 24.7083C17.1988 24.9022 17.0057 25.1466 16.8724 25.424C16.7392 25.7013 16.669 26.0048 16.667 26.3125V33.3333C16.6653 34.8273 17.0107 36.3012 17.676 37.6389C18.3412 38.9765 19.308 40.1414 20.5003 41.0417L23.7711 43.4375C24.1279 43.6982 24.5584 43.8387 25.0003 43.8387C25.4422 43.8387 25.8727 43.6982 26.2295 43.4375L29.5003 41.0208C30.6933 40.1261 31.6611 38.9652 32.3265 37.6306C32.992 36.2961 33.3369 34.8246 33.3336 33.3333V26.3125C33.3316 26.0048 33.2614 25.7013 33.1281 25.424C32.9948 25.1466 32.8018 24.9022 32.5628 24.7083C32.3208 24.5125 32.0379 24.3735 31.7351 24.3014C31.4322 24.2293 31.1171 24.226 30.8128 24.2917ZM29.167 33.3333C29.1486 34.1385 28.9523 34.9297 28.5921 35.6501C28.2319 36.3705 27.7168 37.0022 27.0836 37.5L25.0003 39L22.917 37.5C22.2838 37.0022 21.7686 36.3705 21.4085 35.6501C21.0483 34.9297 20.852 34.1385 20.8336 33.3333V28.5833C22.2907 28.5179 23.7146 28.1263 25.0003 27.4375C26.286 28.1263 27.7098 28.5179 29.167 28.5833V33.3333Z" fill="url(#paint0_linear_430_2387)"/>
<defs>
<linearGradient id="paint0_linear_430_2387" x1="25.0071" y1="6.27768" x2="25.0071" y2="43.8387" gradientUnits="userSpaceOnUse">
<stop stop-color="#AFF1D1"/>
<stop offset="1" stop-color="#006493"/>
</linearGradient>
</defs>
</svg>
