<svg width="50" height="50" viewBox="0 0 50 50" fill="none" xmlns="http://www.w3.org/2000/svg">
<path d="M24.9998 4.16667C20.8794 4.16667 16.8515 5.38853 13.4255 7.67772C9.99944 9.96692 7.32918 13.2206 5.75236 17.0274C4.17553 20.8342 3.76296 25.0231 4.56682 29.0644C5.37068 33.1057 7.35486 36.8178 10.2685 39.7314C13.182 42.645 16.8942 44.6292 20.9355 45.433C24.9767 46.2369 29.1656 45.8243 32.9724 44.2475C36.7792 42.6707 40.0329 40.0004 42.3221 36.5744C44.6113 33.1484 45.8332 29.1204 45.8332 25C45.8332 22.2641 45.2943 19.555 44.2473 17.0274C43.2004 14.4998 41.6658 12.2032 39.7312 10.2686C37.7967 8.33406 35.5 6.79949 32.9724 5.75251C30.4448 4.70554 27.7357 4.16667 24.9998 4.16667ZM27.0832 41.5208V39.5833C27.0832 39.0308 26.8637 38.5009 26.473 38.1102C26.0823 37.7195 25.5524 37.5 24.9998 37.5C24.4473 37.5 23.9174 37.7195 23.5267 38.1102C23.136 38.5009 22.9165 39.0308 22.9165 39.5833V41.5208C19.2498 41.0559 15.8417 39.3852 13.2282 36.7717C10.6146 34.1582 8.944 30.75 8.47901 27.0833H10.4165C10.969 27.0833 11.499 26.8638 11.8897 26.4731C12.2804 26.0824 12.4998 25.5525 12.4998 25C12.4998 24.4475 12.2804 23.9176 11.8897 23.5269C11.499 23.1362 10.969 22.9167 10.4165 22.9167H8.47901C8.944 19.25 10.6146 15.8418 13.2282 13.2283C15.8417 10.6148 19.2498 8.94416 22.9165 8.47917V10.4167C22.9165 10.9692 23.136 11.4991 23.5267 11.8898C23.9174 12.2805 24.4473 12.5 24.9998 12.5C25.5524 12.5 26.0823 12.2805 26.473 11.8898C26.8637 11.4991 27.0832 10.9692 27.0832 10.4167V8.47917C30.7499 8.94416 34.158 10.6148 36.7715 13.2283C39.3851 15.8418 41.0557 19.25 41.5207 22.9167H39.5832C39.0306 22.9167 38.5007 23.1362 38.11 23.5269C37.7193 23.9176 37.4998 24.4475 37.4998 25C37.4998 25.5525 37.7193 26.0824 38.11 26.4731C38.5007 26.8638 39.0306 27.0833 39.5832 27.0833H41.5207C41.0557 30.75 39.3851 34.1582 36.7715 36.7717C34.158 39.3852 30.7499 41.0559 27.0832 41.5208ZM31.5415 15.7292L21.1248 20.1458C20.6392 20.3562 20.2519 20.7436 20.0415 21.2292L15.6248 31.6458C15.4608 32.0279 15.4148 32.4503 15.4927 32.8587C15.5707 33.2671 15.7691 33.6428 16.0623 33.9375C16.447 34.33 16.9712 34.5547 17.5207 34.5625C17.8089 34.5628 18.0936 34.4987 18.354 34.375L28.7707 29.9583C29.2563 29.7479 29.6436 29.3606 29.854 28.875L34.2707 18.4583C34.4317 18.0766 34.4752 17.6555 34.3957 17.2489C34.3161 16.8423 34.1172 16.4686 33.8242 16.1756C33.5312 15.8827 33.1576 15.6837 32.751 15.6042C32.3444 15.5247 31.9233 15.5682 31.5415 15.7292ZM26.354 26.3542L21.604 28.4375L23.6873 23.6875L28.4373 21.6042L26.354 26.3542Z" fill="url(#paint0_linear_415_1356)"/>
<defs>
<linearGradient id="paint0_linear_415_1356" x1="25" y1="4" x2="25" y2="46" gradientUnits="userSpaceOnUse">
<stop stop-color="#AFF1D1"/>
<stop offset="1" stop-color="#006493"/>
</linearGradient>
</defs>
</svg>
