<svg width="50" height="51" viewBox="0 0 50 51" fill="none" xmlns="http://www.w3.org/2000/svg">
<path d="M45.375 24.8446L41.2084 19.6164C41.0143 19.3699 40.7675 19.1705 40.4862 19.0329C40.2049 18.8953 39.8963 18.8231 39.5834 18.8217H27.0834V6.2739C27.0834 5.71925 26.8639 5.18732 26.4732 4.79513C26.0825 4.40293 25.5526 4.1826 25 4.1826C24.4475 4.1826 23.9176 4.40293 23.5269 4.79513C23.1362 5.18732 22.9167 5.71925 22.9167 6.2739V8.3652H10.4167C10.1038 8.36665 9.79517 8.43884 9.51385 8.57642C9.23253 8.714 8.9857 8.91343 8.79168 9.15989L4.62502 14.3881C4.33437 14.7574 4.17627 15.2142 4.17627 15.6847C4.17627 16.1553 4.33437 16.6121 4.62502 16.9813L8.79168 22.2096C8.9857 22.4561 9.23253 22.6555 9.51385 22.7931C9.79517 22.9306 10.1038 23.0028 10.4167 23.0043H22.9167V41.826H18.75C18.1975 41.826 17.6676 42.0463 17.2769 42.4385C16.8862 42.8307 16.6667 43.3626 16.6667 43.9173C16.6667 44.4719 16.8862 45.0039 17.2769 45.396C17.6676 45.7882 18.1975 46.0086 18.75 46.0086H31.25C31.8026 46.0086 32.3325 45.7882 32.7232 45.396C33.1139 45.0039 33.3334 44.4719 33.3334 43.9173C33.3334 43.3626 33.1139 42.8307 32.7232 42.4385C32.3325 42.0463 31.8026 41.826 31.25 41.826H27.0834V33.4608H39.5834C39.8963 33.4593 40.2049 33.3871 40.4862 33.2496C40.7675 33.112 41.0143 32.9126 41.2084 32.6661L45.375 27.4378C45.6657 27.0686 45.8238 26.6118 45.8238 26.1412C45.8238 25.6707 45.6657 25.2138 45.375 24.8446ZM22.9167 18.8217H11.4167L8.91668 15.6847L11.4167 12.5478H22.9167V18.8217ZM38.5834 29.2782H27.0834V23.0043H38.5834L41.0833 26.1412L38.5834 29.2782Z" fill="url(#paint0_linear_414_1327)"/>
<defs>
<linearGradient id="paint0_linear_414_1327" x1="25" y1="4.1826" x2="25" y2="46.0086" gradientUnits="userSpaceOnUse">
<stop stop-color="#AFF1D1"/>
<stop offset="1" stop-color="#006493"/>
</linearGradient>
</defs>
</svg>
