<svg width="22" height="22" viewBox="0 0 22 22" fill="none" xmlns="http://www.w3.org/2000/svg">
<path d="M18.7645 1.83338H3.23617C3.06162 1.83096 2.8883 1.86294 2.72611 1.92751C2.56392 1.99207 2.41603 2.08796 2.2909 2.20968C2.16577 2.33141 2.06585 2.47659 1.99683 2.63694C1.92782 2.79729 1.89106 2.96966 1.88867 3.14421V18.8559C1.89106 19.0304 1.92782 19.2028 1.99683 19.3632C2.06585 19.5235 2.16577 19.6687 2.2909 19.7904C2.41603 19.9121 2.56392 20.008 2.72611 20.0726C2.8883 20.1372 3.06162 20.1691 3.23617 20.1667H18.7645C18.9391 20.1691 19.1124 20.1372 19.2746 20.0726C19.4368 20.008 19.5846 19.9121 19.7098 19.7904C19.8349 19.6687 19.9348 19.5235 20.0038 19.3632C20.0729 19.2028 20.1096 19.0304 20.112 18.8559V3.14421C20.1096 2.96966 20.0729 2.79729 20.0038 2.63694C19.9348 2.47659 19.8349 2.33141 19.7098 2.20968C19.5846 2.08796 19.4368 1.99207 19.2746 1.92751C19.1124 1.86294 18.9391 1.83096 18.7645 1.83338ZM7.41617 17.1784H4.66617V8.92838H7.41617V17.1784ZM6.04117 7.77338C5.66191 7.77338 5.29819 7.62272 5.03001 7.35454C4.76183 7.08637 4.61117 6.72264 4.61117 6.34338C4.61117 5.96412 4.76183 5.60039 5.03001 5.33222C5.29819 5.06404 5.66191 4.91338 6.04117 4.91338C6.24256 4.89054 6.4465 4.9105 6.63964 4.97194C6.83278 5.03338 7.01077 5.13493 7.16194 5.26993C7.31312 5.40493 7.43407 5.57034 7.51689 5.75532C7.5997 5.94031 7.64251 6.1407 7.64251 6.34338C7.64251 6.54606 7.5997 6.74645 7.51689 6.93144C7.43407 7.11643 7.31312 7.28183 7.16194 7.41683C7.01077 7.55183 6.83278 7.65338 6.63964 7.71482C6.4465 7.77626 6.24256 7.79622 6.04117 7.77338ZM17.3345 17.1784H14.5845V12.7509C14.5845 11.6417 14.1903 10.9175 13.1912 10.9175C12.8819 10.9198 12.5808 11.0168 12.3284 11.1955C12.076 11.3741 11.8844 11.6258 11.7795 11.9167C11.7078 12.1322 11.6767 12.3591 11.6878 12.5859V17.1692H8.93784C8.93784 17.1692 8.93784 9.67088 8.93784 8.91921H11.6878V10.0834C11.9377 9.64989 12.301 9.29277 12.7387 9.05048C13.1765 8.80819 13.672 8.68991 14.172 8.70838C16.0053 8.70838 17.3345 9.89088 17.3345 12.43V17.1784Z" fill="#FEFEFE"/>
</svg>
