<svg width="189" height="33" viewBox="0 0 189 33" fill="none" xmlns="http://www.w3.org/2000/svg">
<path d="M37.3501 0C27.1321 0 22.255 6.12738 17.7655 12.956L17.7075 13.0427L17.7945 13.1005L19.5423 14.2403L19.6293 14.2981L19.6873 14.2114C24.77 6.48194 29.0908 2.29284 37.3475 2.29284H37.4529V2.18779V0.105055V0H37.3501V0Z" fill="#2CAD85"/>
<path d="M37.3503 24.8745C29.0936 24.8745 24.7728 20.6854 19.6901 12.9559L19.6532 12.8981H19.6506C18.6936 11.4431 17.5469 9.7543 16.2762 8.18109C16.1918 8.07603 16.1075 7.9736 16.0205 7.86854L15.9045 7.72672C12.7674 3.97885 9.50371 1.74379 5.63372 0.695857L5.23565 0.588175C4.86657 0.498877 4.57922 0.435844 4.30505 0.385942L4.18115 0.362305V0.488373V22.9047V23.0097H4.2866H5.98961C9.10828 23.0097 11.6206 23.1358 13.7481 23.7582C15.2164 24.1863 16.6637 24.9112 18.0504 25.9145L18.6646 26.3584L18.8834 26.516L18.8307 26.2533C18.2349 23.2934 15.8017 22.0406 14.4018 21.5573C11.9475 20.8403 9.14782 20.7274 6.48259 20.7142V3.35902C8.92111 4.28614 11.0723 5.83046 13.2445 8.20735L13.2867 8.25462L13.3131 8.28351C13.437 8.42009 13.5609 8.55929 13.6822 8.69849C13.8351 8.87445 13.988 9.05042 14.1382 9.23427C14.3649 9.50741 14.589 9.78056 14.7999 10.0485C14.8895 10.1588 14.9739 10.2691 15.0583 10.382C15.1479 10.4976 15.2323 10.6079 15.3166 10.7182L15.4563 10.9047C15.5565 11.036 15.6567 11.1725 15.7569 11.3117L15.8808 11.4798C15.9678 11.6007 16.0548 11.7215 16.1444 11.8475C16.3342 12.1128 16.5398 12.4043 16.7692 12.7379C16.7771 12.751 16.7903 12.7694 16.8035 12.7904L16.8166 12.8088C17.1936 13.3656 17.4862 13.8016 17.7578 14.2192L17.7894 14.2664H17.792C22.2736 21.0741 27.1507 27.1752 37.345 27.1752H37.4505V27.0701V24.9874V24.8823H37.3503V24.8745Z" fill="url(#paint0_linear_502_778)"/>
<path d="M28.0469 27.0624C27.0452 26.587 26.0671 26.0144 25.1339 25.3579L25.097 25.3316L25.0522 25.3421C24.7464 25.4078 24.4801 25.476 24.2376 25.547C21.6883 26.2928 19.7191 27.958 18.7278 28.935C17.7392 27.958 15.7673 26.2928 13.2181 25.547C11.3095 24.9902 8.94739 24.8746 5.98689 24.8746H2.30143V0.194353V0.0971764L2.20653 0.0892975C1.52111 0.0288904 0.814597 0 0.105449 0H0V0.105055V26.0302V27.065V27.1701H0.105449H5.98953C9.25583 27.1701 11.1618 27.3382 12.5722 27.7505C15.6302 28.6435 17.7366 31.2331 17.8236 31.3434L18.6461 32.3861L18.7278 32.4911L18.8095 32.3861L19.6321 31.3434C19.6531 31.3171 21.7911 28.6566 24.8834 27.7531C25.7112 27.5115 26.7051 27.3565 28.0074 27.2672L28.4081 27.241L28.0469 27.0624Z" fill="url(#paint1_linear_502_778)"/>
<path opacity="0.87" d="M29.8711 7.24609V19.9184" stroke="#2CAD85" stroke-width="3.3" stroke-miterlimit="10" stroke-linecap="round"/>
<path opacity="0.87" d="M34.7241 5.26367V21.9045" stroke="#2CAD85" stroke-width="3.3" stroke-miterlimit="10" stroke-linecap="round"/>
<path opacity="0.87" d="M25.0151 10.834V16.3337" stroke="#2CAD85" stroke-width="3.3" stroke-miterlimit="10" stroke-linecap="round"/>
<path d="M47.2256 14.1504C47.2256 8.53777 50.368 5.22852 54.9049 5.22852C59.4419 5.22852 62.5843 8.55353 62.5843 14.1504C62.5843 19.763 59.4419 23.2114 54.9049 23.2114C50.368 23.2114 47.2256 19.763 47.2256 14.1504ZM59.4103 14.1504C59.4103 10.2554 57.6413 7.90219 54.9049 7.90219C52.1685 7.90219 50.3996 10.2581 50.3996 14.1504C50.3996 18.0427 52.1685 20.5378 54.9049 20.5378C57.6413 20.5378 59.4103 18.0453 59.4103 14.1504Z" fill="#006493"/>
<path d="M84.3356 5.54688H87.0773C87.1722 5.54688 87.2513 5.62304 87.2513 5.72022V22.7209C87.2513 22.8154 87.1748 22.8942 87.0773 22.8942H84.3356C84.2407 22.8942 84.1616 22.8181 84.1616 22.7209V5.72022C84.1616 5.62304 84.2381 5.54688 84.3356 5.54688Z" fill="#006493"/>
<path d="M89.9644 14.2791C89.9644 8.60343 93.5312 5.22852 97.9416 5.22852C100.053 5.22852 101.748 6.20291 102.848 7.31125C102.911 7.37428 102.914 7.47671 102.856 7.545L101.424 9.26528C101.361 9.34408 101.245 9.3467 101.171 9.27842C100.306 8.45898 99.2993 7.90219 98.0049 7.90219C95.1736 7.90219 93.1384 10.2896 93.1384 14.1819C93.1384 18.1399 95.0127 20.5378 97.9311 20.5378C99.4073 20.5378 100.562 19.8891 101.516 18.8963C101.588 18.8227 101.706 18.8227 101.775 18.9015L103.201 20.5719C103.256 20.6376 103.256 20.7374 103.198 20.803C101.801 22.3631 100.019 23.2141 97.8151 23.2141C93.4363 23.2114 89.9644 20.0177 89.9644 14.2791Z" fill="#006493"/>
<path d="M104.432 20.5427L106.009 18.6937C106.072 18.6202 106.183 18.6123 106.256 18.678C107.488 19.7942 109.098 20.5348 110.662 20.5348C112.62 20.5348 113.696 19.6497 113.696 18.2972C113.696 16.871 112.573 16.414 110.991 15.7443L108.611 14.7148C106.897 14.003 105.091 12.6504 105.091 10.1159C105.091 7.35296 107.54 5.22559 110.938 5.22559C112.916 5.22559 114.835 6.01876 116.192 7.3267C116.258 7.38974 116.264 7.49216 116.206 7.56308L114.829 9.2571C114.769 9.33064 114.658 9.34115 114.584 9.28074C113.517 8.4114 112.37 7.90188 110.938 7.90188C109.288 7.90188 108.213 8.67142 108.213 9.93997C108.213 11.3031 109.539 11.8073 110.981 12.3956L113.329 13.3779C115.402 14.2367 116.849 15.5421 116.849 18.0555C116.849 20.8684 114.505 23.2111 110.598 23.2111C108.302 23.2111 106.085 22.3313 104.445 20.7844C104.377 20.7213 104.374 20.6136 104.432 20.5427Z" fill="#006493"/>
<path d="M118.705 14.119C118.705 8.5747 121.739 5.09473 126.202 5.09473C128.179 5.09473 129.716 6.0376 130.663 7.06978C130.723 7.13544 130.721 7.23524 130.663 7.3009L130.172 7.85769C130.104 7.93386 129.985 7.93386 129.916 7.86032C128.983 6.86229 127.744 6.20569 126.213 6.20569C122.369 6.20569 119.988 9.25494 119.988 14.1033C119.988 18.9621 122.343 22.1033 126.112 22.1033C127.863 22.1033 129.186 21.4151 130.42 20.0888C130.489 20.0153 130.605 20.0127 130.673 20.0862L131.156 20.5983C131.216 20.664 131.219 20.7664 131.158 20.8347C129.837 22.3186 128.271 23.2142 126.046 23.2142C121.723 23.2116 118.705 19.6738 118.705 14.119Z" fill="#858585"/>
<path d="M133.858 5.41211H134.735C134.83 5.41211 134.909 5.4909 134.909 5.58545V13.0733H144.292V5.58545C144.292 5.4909 144.371 5.41211 144.466 5.41211H145.341C145.436 5.41211 145.515 5.4909 145.515 5.58545V22.7174C145.515 22.812 145.436 22.8908 145.341 22.8908H144.466C144.371 22.8908 144.292 22.812 144.292 22.7174V14.1396H134.909V22.7201C134.909 22.8146 134.83 22.8934 134.735 22.8934H133.858C133.763 22.8934 133.684 22.8146 133.684 22.7201V5.58545C133.684 5.4909 133.763 5.41211 133.858 5.41211Z" fill="#858585"/>
<path d="M154.102 5.41211H155.08C155.153 5.41211 155.219 5.45938 155.243 5.52767L161.301 22.6596C161.341 22.7726 161.256 22.8908 161.138 22.8908H160.21C160.136 22.8908 160.07 22.8435 160.046 22.7726L156.582 12.5979C155.868 10.5231 155.251 8.68985 154.634 6.56247H154.529C153.917 8.6951 153.297 10.5257 152.586 12.5979L149.074 22.7726C149.05 22.8435 148.985 22.8908 148.911 22.8908H148.046C147.925 22.8908 147.843 22.7726 147.883 22.6596L153.938 5.5303C153.962 5.45938 154.028 5.41211 154.102 5.41211ZM150.619 15.8704H158.486V16.8921H150.619V15.8704Z" fill="#858585"/>
<path d="M163.671 5.58545C163.671 5.4909 163.75 5.41211 163.845 5.41211H168.685C172.173 5.41211 174.456 6.68591 174.456 10.0267C174.456 13.2125 172.173 14.8645 168.685 14.8645H164.894V22.7174C164.894 22.812 164.815 22.8908 164.72 22.8908H163.845C163.75 22.8908 163.671 22.812 163.671 22.7174V5.58545ZM168.369 13.8376C171.474 13.8376 173.198 12.6111 173.198 10.0293C173.198 7.39767 171.474 6.44428 168.369 6.44428H164.897V13.8402H168.369V13.8376ZM168.413 14.5073L169.584 14.158L174.638 22.6308C174.706 22.7463 174.622 22.8934 174.487 22.8934H173.472C173.412 22.8934 173.354 22.8619 173.322 22.8094L168.413 14.5073Z" fill="#858585"/>
<path d="M181.278 6.46267H175.866C175.771 6.46267 175.692 6.38387 175.692 6.28932V5.58545C175.692 5.4909 175.771 5.41211 175.866 5.41211H187.913C188.008 5.41211 188.087 5.4909 188.087 5.58545V6.28932C188.087 6.38387 188.008 6.46267 187.913 6.46267H182.501V22.7174C182.501 22.812 182.422 22.8908 182.327 22.8908H181.452C181.357 22.8908 181.278 22.812 181.278 22.7174V6.46267V6.46267Z" fill="#858585"/>
<path d="M78.7182 5.54688H77.0257C76.9492 5.54688 76.8833 5.59678 76.8596 5.66769L73.0212 17.933L69.1829 5.66769C69.1592 5.59415 69.0933 5.54688 69.0168 5.54688H67.3243H65.4948C65.3999 5.54688 65.3208 5.62567 65.3208 5.72022V22.7209C65.3208 22.8154 65.3999 22.8942 65.4948 22.8942H66.3885H67.928C68.0229 22.8942 68.102 22.8154 68.102 22.7209V14.9599V10.7681L71.8587 22.7708C71.8824 22.8443 71.9483 22.8916 72.0247 22.8916H73.0239H74.023C74.0995 22.8916 74.1654 22.8417 74.1891 22.7708L77.9457 10.7681V14.9572V22.7182C77.9457 22.8128 78.0248 22.8916 78.1197 22.8916H79.6593H80.553C80.6479 22.8916 80.727 22.8128 80.727 22.7182V5.72022C80.727 5.62567 80.6479 5.54688 80.553 5.54688H78.7182Z" fill="#006493"/>
<defs>
<linearGradient id="paint0_linear_502_778" x1="4.18118" y1="13.7646" x2="37.4555" y2="13.7646" gradientUnits="userSpaceOnUse">
<stop stop-color="#006493"/>
<stop offset="0.6408" stop-color="#09A980"/>
<stop offset="1" stop-color="#09AC7F"/>
</linearGradient>
<linearGradient id="paint1_linear_502_778" x1="-0.000210899" y1="16.2425" x2="28.4086" y2="16.2425" gradientUnits="userSpaceOnUse">
<stop stop-color="#006493"/>
<stop offset="0.6408" stop-color="#09A980"/>
<stop offset="1" stop-color="#09AC7F"/>
</linearGradient>
</defs>
</svg>
