<svg width="104" height="91" viewBox="0 0 104 91" fill="none" xmlns="http://www.w3.org/2000/svg">
<path d="M51.9998 32C64.4661 13.0384 75.3412 0 103.714 0H104V0.291715V6.07501V6.36673H103.707C80.7801 6.36673 70.1132 16.5369 55.9998 38L52.9998 33.5L51.9998 32Z" fill="#2CAD85" fill-opacity="0.14"/>
<path d="M103.712 69.0713C80.7852 69.0713 68.7873 57.439 54.6738 35.9759L54.5714 35.8155H54.564C51.9068 31.7752 48.7225 27.0859 45.1941 22.7174C44.9599 22.4257 44.7256 22.1413 44.484 21.8495L44.162 21.4557C35.4508 11.0487 26.3884 4.84243 15.6422 1.93255L14.5369 1.63354C13.512 1.38558 12.7141 1.21055 11.9528 1.07198L11.6088 1.00635V1.35641V63.6016V63.8933H11.9016H16.6305C25.2903 63.8933 32.2665 64.2433 38.174 65.9718C42.2514 67.1605 46.2702 69.1734 50.1206 71.9593L51.8263 73.1918L52.4338 73.6293L52.2874 72.9C50.6331 64.6809 43.8765 61.2022 39.9894 59.8603C33.1742 57.8693 25.4001 57.5557 17.9993 57.5193V9.32758C24.7706 11.902 30.7439 16.1902 36.7758 22.7903L36.8929 22.9216L36.9661 23.0018C37.3102 23.3811 37.6542 23.7676 37.991 24.1541C38.4156 24.6427 38.8401 25.1314 39.2574 25.6419C39.8869 26.4003 40.5091 27.1588 41.0948 27.9027C41.3437 28.209 41.5779 28.5153 41.8121 28.8289C42.061 29.1498 42.2953 29.4561 42.5295 29.7624L42.9175 30.2802C43.1957 30.6448 43.4738 31.024 43.752 31.4106L44.0961 31.8773C44.3376 32.2128 44.5792 32.5483 44.8281 32.8983C45.3552 33.6349 45.9261 34.4444 46.563 35.3706C46.585 35.4071 46.6216 35.4581 46.6582 35.5165L46.6948 35.5675C47.7416 37.1136 48.5541 38.3243 49.3081 39.4838L49.3959 39.6151H49.4033C61.8477 58.5184 75.3902 75.4599 103.698 75.4599H103.99V75.1681V69.3848V69.0931H103.712V69.0713Z" fill="url(#paint0_linear_417_1244)" fill-opacity="0.14"/>
<path d="M77.8802 75.1464C75.0985 73.8263 72.3827 72.2365 69.7913 70.4132L69.6889 70.3403L69.5644 70.3695C68.7153 70.5518 67.9759 70.7414 67.3025 70.9383C60.2238 73.0095 54.7555 77.6333 52.0031 80.3462C49.258 77.6333 43.7825 73.0095 36.7038 70.9383C31.4039 69.3922 24.845 69.0714 16.6243 69.0714H6.39058V0.539675V0.269838L6.12705 0.24796C4.22379 0.0802224 2.26196 0 0.292809 0H0V0.291716V72.2802V75.1536V75.4454H0.292809H16.6316C25.7014 75.4454 30.994 75.9121 34.9103 77.0571C43.4018 79.5367 49.2507 86.7275 49.4923 87.0338L51.7762 89.9291L52.0031 90.2208L52.23 89.9291L54.514 87.0338C54.5725 86.9609 60.5092 79.5732 69.0959 77.0644C71.3945 76.3935 74.1542 75.9632 77.7704 75.7152L78.8831 75.6423L77.8802 75.1464Z" fill="url(#paint1_linear_417_1244)" fill-opacity="0.14"/>
<path opacity="0.87" d="M82.9456 20.1211V55.3095" stroke="#2CAD85" stroke-opacity="0.14" stroke-width="3.3" stroke-miterlimit="10" stroke-linecap="round"/>
<path opacity="0.87" d="M96.4229 14.615V60.823" stroke="#2CAD85" stroke-opacity="0.14" stroke-width="3.3" stroke-miterlimit="10" stroke-linecap="round"/>
<path opacity="0.87" d="M69.4631 30.0833V45.3546" stroke="#2CAD85" stroke-opacity="0.14" stroke-width="3.3" stroke-miterlimit="10" stroke-linecap="round"/>
<defs>
<linearGradient id="paint0_linear_417_1244" x1="11.6088" y1="38.2215" x2="104.004" y2="38.2215" gradientUnits="userSpaceOnUse">
<stop stop-color="#006493"/>
<stop offset="0.6408" stop-color="#09A980"/>
<stop offset="1" stop-color="#09AC7F"/>
</linearGradient>
<linearGradient id="paint1_linear_417_1244" x1="-0.000585621" y1="45.102" x2="78.8845" y2="45.102" gradientUnits="userSpaceOnUse">
<stop stop-color="#006493"/>
<stop offset="0.6408" stop-color="#09A980"/>
<stop offset="1" stop-color="#09AC7F"/>
</linearGradient>
</defs>
</svg>
