<svg width="50" height="50" viewBox="0 0 50 50" fill="none" xmlns="http://www.w3.org/2000/svg">
<path d="M31.2497 35.4167C30.8376 35.4167 30.4348 35.5389 30.0922 35.7678C29.7496 35.9967 29.4826 36.3221 29.3249 36.7028C29.1672 37.0834 29.126 37.5023 29.2064 37.9064C29.2868 38.3106 29.4852 38.6818 29.7765 38.9731C30.0679 39.2645 30.4391 39.4629 30.8432 39.5433C31.2474 39.6237 31.6663 39.5824 32.0469 39.4248C32.4276 39.2671 32.753 39 32.9819 38.6574C33.2108 38.3148 33.333 37.9121 33.333 37.5C33.333 36.9475 33.1135 36.4176 32.7228 36.0269C32.3321 35.6362 31.8022 35.4167 31.2497 35.4167ZM22.9163 35.4167H18.7497C18.1971 35.4167 17.6672 35.6362 17.2765 36.0269C16.8858 36.4176 16.6663 36.9475 16.6663 37.5C16.6663 38.0525 16.8858 38.5824 17.2765 38.9731C17.6672 39.3638 18.1971 39.5833 18.7497 39.5833H22.9163C23.4689 39.5833 23.9988 39.3638 24.3895 38.9731C24.7802 38.5824 24.9997 38.0525 24.9997 37.5C24.9997 36.9475 24.7802 36.4176 24.3895 36.0269C23.9988 35.6362 23.4689 35.4167 22.9163 35.4167ZM22.9163 22.9167H18.7497C18.1971 22.9167 17.6672 23.1362 17.2765 23.5269C16.8858 23.9176 16.6663 24.4475 16.6663 25C16.6663 25.5525 16.8858 26.0824 17.2765 26.4731C17.6672 26.8638 18.1971 27.0833 18.7497 27.0833H22.9163C23.4689 27.0833 23.9988 26.8638 24.3895 26.4731C24.7802 26.0824 24.9997 25.5525 24.9997 25C24.9997 24.4475 24.7802 23.9176 24.3895 23.5269C23.9988 23.1362 23.4689 22.9167 22.9163 22.9167ZM31.2497 22.9167C30.8376 22.9167 30.4348 23.0389 30.0922 23.2678C29.7496 23.4967 29.4826 23.8221 29.3249 24.2027C29.1672 24.5834 29.126 25.0023 29.2064 25.4064C29.2868 25.8106 29.4852 26.1818 29.7765 26.4731C30.0679 26.7645 30.4391 26.9629 30.8432 27.0433C31.2474 27.1237 31.6663 27.0824 32.0469 26.9248C32.4276 26.7671 32.753 26.5 32.9819 26.1574C33.2108 25.8148 33.333 25.4121 33.333 25C33.333 24.4475 33.1135 23.9176 32.7228 23.5269C32.3321 23.1362 31.8022 22.9167 31.2497 22.9167ZM47.9163 16.6667C47.9163 15.0091 47.2579 13.4194 46.0858 12.2473C44.9137 11.0752 43.3239 10.4167 41.6663 10.4167H39.583C39.583 8.75907 38.9245 7.16936 37.7524 5.99725C36.5803 4.82515 34.9906 4.16667 33.333 4.16667H16.6663C15.0087 4.16667 13.419 4.82515 12.2469 5.99725C11.0748 7.16936 10.4163 8.75907 10.4163 10.4167H8.33301C6.6754 10.4167 5.08569 11.0752 3.91359 12.2473C2.74149 13.4194 2.08301 15.0091 2.08301 16.6667V20.8333C2.0922 22.3751 2.67095 23.8591 3.70801 25C2.67095 26.1409 2.0922 27.6249 2.08301 29.1667V33.3333C2.08301 34.9909 2.74149 36.5807 3.91359 37.7528C5.08569 38.9249 6.6754 39.5833 8.33301 39.5833H10.4163C10.4163 41.2409 11.0748 42.8307 12.2469 44.0028C13.419 45.1749 15.0087 45.8333 16.6663 45.8333H33.333C34.9906 45.8333 36.5803 45.1749 37.7524 44.0028C38.9245 42.8307 39.583 41.2409 39.583 39.5833H41.6663C43.3239 39.5833 44.9137 38.9249 46.0858 37.7528C47.2579 36.5807 47.9163 34.9909 47.9163 33.3333V29.1667C47.9072 27.6249 47.3284 26.1409 46.2913 25C47.3284 23.8591 47.9072 22.3751 47.9163 20.8333V16.6667ZM10.4163 35.4167H8.33301C7.78047 35.4167 7.25057 35.1972 6.85987 34.8065C6.46917 34.4158 6.24967 33.8859 6.24967 33.3333V29.1667C6.24967 28.6141 6.46917 28.0842 6.85987 27.6935C7.25057 27.3028 7.78047 27.0833 8.33301 27.0833H10.4163C10.4255 28.6251 11.0043 30.1091 12.0413 31.25C11.0043 32.3909 10.4255 33.8749 10.4163 35.4167ZM10.4163 22.9167H8.33301C7.78047 22.9167 7.25057 22.6972 6.85987 22.3065C6.46917 21.9158 6.24967 21.3859 6.24967 20.8333V16.6667C6.24967 16.1141 6.46917 15.5842 6.85987 15.1935C7.25057 14.8028 7.78047 14.5833 8.33301 14.5833H10.4163C10.4255 16.1251 11.0043 17.6091 12.0413 18.75C11.0043 19.8909 10.4255 21.3749 10.4163 22.9167ZM35.4163 39.5833C35.4163 40.1359 35.1968 40.6658 34.8061 41.0565C34.4154 41.4472 33.8855 41.6667 33.333 41.6667H16.6663C16.1138 41.6667 15.5839 41.4472 15.1932 41.0565C14.8025 40.6658 14.583 40.1359 14.583 39.5833V35.4167C14.583 34.8641 14.8025 34.3342 15.1932 33.9435C15.5839 33.5528 16.1138 33.3333 16.6663 33.3333H33.333C33.8855 33.3333 34.4154 33.5528 34.8061 33.9435C35.1968 34.3342 35.4163 34.8641 35.4163 35.4167V39.5833ZM35.4163 27.0833C35.4163 27.6359 35.1968 28.1658 34.8061 28.5565C34.4154 28.9472 33.8855 29.1667 33.333 29.1667H16.6663C16.1138 29.1667 15.5839 28.9472 15.1932 28.5565C14.8025 28.1658 14.583 27.6359 14.583 27.0833V22.9167C14.583 22.3641 14.8025 21.8342 15.1932 21.4435C15.5839 21.0528 16.1138 20.8333 16.6663 20.8333H33.333C33.8855 20.8333 34.4154 21.0528 34.8061 21.4435C35.1968 21.8342 35.4163 22.3641 35.4163 22.9167V27.0833ZM35.4163 14.5833C35.4163 15.1359 35.1968 15.6658 34.8061 16.0565C34.4154 16.4472 33.8855 16.6667 33.333 16.6667H16.6663C16.1138 16.6667 15.5839 16.4472 15.1932 16.0565C14.8025 15.6658 14.583 15.1359 14.583 14.5833V10.4167C14.583 9.86414 14.8025 9.33423 15.1932 8.94353C15.5839 8.55283 16.1138 8.33334 16.6663 8.33334H33.333C33.8855 8.33334 34.4154 8.55283 34.8061 8.94353C35.1968 9.33423 35.4163 9.86414 35.4163 10.4167V14.5833ZM43.7497 33.3333C43.7497 33.8859 43.5302 34.4158 43.1395 34.8065C42.7488 35.1972 42.2189 35.4167 41.6663 35.4167H39.583C39.5738 33.8749 38.9951 32.3909 37.958 31.25C38.9951 30.1091 39.5738 28.6251 39.583 27.0833H41.6663C42.2189 27.0833 42.7488 27.3028 43.1395 27.6935C43.5302 28.0842 43.7497 28.6141 43.7497 29.1667V33.3333ZM43.7497 20.8333C43.7497 21.3859 43.5302 21.9158 43.1395 22.3065C42.7488 22.6972 42.2189 22.9167 41.6663 22.9167H39.583C39.5738 21.3749 38.9951 19.8909 37.958 18.75C38.9951 17.6091 39.5738 16.1251 39.583 14.5833H41.6663C42.2189 14.5833 42.7488 14.8028 43.1395 15.1935C43.5302 15.5842 43.7497 16.1141 43.7497 16.6667V20.8333ZM31.2497 10.4167C30.8376 10.4167 30.4348 10.5389 30.0922 10.7678C29.7496 10.9967 29.4826 11.3221 29.3249 11.7027C29.1672 12.0834 29.126 12.5023 29.2064 12.9064C29.2868 13.3106 29.4852 13.6818 29.7765 13.9731C30.0679 14.2645 30.4391 14.4629 30.8432 14.5433C31.2474 14.6237 31.6663 14.5824 32.0469 14.4248C32.4276 14.2671 32.753 14 32.9819 13.6574C33.2108 13.3148 33.333 12.9121 33.333 12.5C33.333 11.9475 33.1135 11.4176 32.7228 11.0269C32.3321 10.6362 31.8022 10.4167 31.2497 10.4167ZM22.9163 10.4167H18.7497C18.1971 10.4167 17.6672 10.6362 17.2765 11.0269C16.8858 11.4176 16.6663 11.9475 16.6663 12.5C16.6663 13.0525 16.8858 13.5824 17.2765 13.9731C17.6672 14.3638 18.1971 14.5833 18.7497 14.5833H22.9163C23.4689 14.5833 23.9988 14.3638 24.3895 13.9731C24.7802 13.5824 24.9997 13.0525 24.9997 12.5C24.9997 11.9475 24.7802 11.4176 24.3895 11.0269C23.9988 10.6362 23.4689 10.4167 22.9163 10.4167Z" fill="url(#paint0_linear_431_2399)"/>
<defs>
<linearGradient id="paint0_linear_431_2399" x1="24.9997" y1="4.16667" x2="24.9997" y2="45.8333" gradientUnits="userSpaceOnUse">
<stop stop-color="#AFF1D1"/>
<stop offset="1" stop-color="#006493"/>
</linearGradient>
</defs>
</svg>
