<svg width="22" height="22" viewBox="0 0 22 22" fill="none" xmlns="http://www.w3.org/2000/svg">
<path d="M20.1663 5.31661C19.4773 5.61554 18.7486 5.81314 18.003 5.90328C18.7897 5.43333 19.3792 4.694 19.6622 3.82245C18.9229 4.26251 18.1137 4.57255 17.2697 4.73911C16.7055 4.12731 15.9542 3.72005 15.1337 3.58123C14.3131 3.4424 13.4697 3.57986 12.7356 3.97204C12.0016 4.36422 11.4185 4.98893 11.0778 5.74821C10.7371 6.50749 10.658 7.35839 10.853 8.16745C9.35832 8.09185 7.89625 7.70266 6.56177 7.02515C5.2273 6.34765 4.05028 5.397 3.10717 4.23495C2.77638 4.8126 2.60257 5.46679 2.60301 6.13245C2.60183 6.75063 2.75354 7.35951 3.04462 7.90488C3.33569 8.45025 3.75711 8.91518 4.27134 9.25828C3.67365 9.24202 3.08874 9.08164 2.56634 8.79078V8.83662C2.57082 9.70276 2.87434 10.5408 3.42555 11.2089C3.97676 11.8771 4.74183 12.3343 5.59134 12.5033C5.26433 12.6028 4.92481 12.6553 4.58301 12.6591C4.34641 12.6564 4.11039 12.6349 3.87717 12.5949C4.11909 13.34 4.58725 13.9912 5.21649 14.4578C5.84574 14.9244 6.60479 15.1832 7.38801 15.1983C6.06544 16.2389 4.43257 16.8069 2.74967 16.8116C2.44327 16.8126 2.1371 16.7943 1.83301 16.7566C3.55123 17.866 5.55359 18.4549 7.59884 18.4524C9.01023 18.4671 10.4104 18.2004 11.7175 17.6679C13.0247 17.1353 14.2126 16.3477 15.2119 15.3509C16.2113 14.3541 17.002 13.1682 17.5379 11.8624C18.0737 10.5567 18.344 9.1572 18.333 7.74578C18.333 7.58995 18.333 7.42495 18.333 7.25995C19.0523 6.72352 19.6727 6.06592 20.1663 5.31661Z" fill="#FEFEFE"/>
</svg>
