<svg width="50" height="50" viewBox="0 0 50 50" fill="none" xmlns="http://www.w3.org/2000/svg">
<rect width="50" height="50" fill="white"/>
<path d="M25.6247 25.4583C26.7363 24.4961 27.6279 23.306 28.239 21.9688C28.8501 20.6316 29.1664 19.1786 29.1663 17.7083C29.1663 14.9457 28.0689 12.2961 26.1154 10.3426C24.1619 8.38914 21.5123 7.29167 18.7497 7.29167C15.987 7.29167 13.3375 8.38914 11.384 10.3426C9.43048 12.2961 8.33301 14.9457 8.33301 17.7083C8.33299 19.1786 8.64926 20.6316 9.26035 21.9688C9.87144 23.306 10.7631 24.4961 11.8747 25.4583C8.9583 26.7789 6.48398 28.9115 4.74755 31.6011C3.01112 34.2908 2.08607 37.4236 2.08301 40.625C2.08301 41.1775 2.3025 41.7074 2.6932 42.0981C3.0839 42.4888 3.61381 42.7083 4.16634 42.7083C4.71888 42.7083 5.24878 42.4888 5.63948 42.0981C6.03018 41.7074 6.24967 41.1775 6.24967 40.625C6.24967 37.3098 7.56664 34.1304 9.91084 31.7862C12.255 29.442 15.4345 28.125 18.7497 28.125C22.0649 28.125 25.2443 29.442 27.5885 31.7862C29.9327 34.1304 31.2497 37.3098 31.2497 40.625C31.2497 41.1775 31.4692 41.7074 31.8599 42.0981C32.2506 42.4888 32.7805 42.7083 33.333 42.7083C33.8855 42.7083 34.4155 42.4888 34.8062 42.0981C35.1969 41.7074 35.4163 41.1775 35.4163 40.625C35.4133 37.4236 34.4882 34.2908 32.7518 31.6011C31.0154 28.9115 28.5411 26.7789 25.6247 25.4583ZM18.7497 23.9583C17.5135 23.9583 16.3052 23.5918 15.2774 22.905C14.2496 22.2183 13.4485 21.2421 12.9754 20.1001C12.5024 18.9581 12.3786 17.7014 12.6198 16.489C12.8609 15.2766 13.4562 14.163 14.3303 13.2889C15.2043 12.4148 16.318 11.8196 17.5304 11.5784C18.7427 11.3373 19.9994 11.461 21.1414 11.9341C22.2835 12.4071 23.2596 13.2082 23.9464 14.236C24.6331 15.2638 24.9997 16.4722 24.9997 17.7083C24.9997 19.3659 24.3412 20.9557 23.1691 22.1278C21.997 23.2999 20.4073 23.9583 18.7497 23.9583ZM39.0413 24.625C40.3746 23.1236 41.2455 21.2689 41.5493 19.284C41.853 17.2992 41.5766 15.2689 40.7534 13.4375C39.9301 11.6061 38.5951 10.0517 36.909 8.9613C35.2229 7.87094 33.2576 7.29114 31.2497 7.29167C30.6971 7.29167 30.1672 7.51117 29.7765 7.90187C29.3858 8.29257 29.1663 8.82247 29.1663 9.37501C29.1663 9.92754 29.3858 10.4574 29.7765 10.8481C30.1672 11.2388 30.6971 11.4583 31.2497 11.4583C32.9073 11.4583 34.497 12.1168 35.6691 13.2889C36.8412 14.461 37.4997 16.0507 37.4997 17.7083C37.4967 18.8026 37.2065 19.8769 36.6581 20.8238C36.1097 21.7707 35.3223 22.557 34.3747 23.1042C34.0658 23.2823 33.8078 23.5368 33.6254 23.8432C33.443 24.1496 33.3424 24.4977 33.333 24.8542C33.3243 25.2078 33.4058 25.5579 33.5698 25.8714C33.7338 26.1848 33.975 26.4514 34.2705 26.6458L35.083 27.1875L35.3538 27.3333C37.8651 28.5244 39.9837 30.4083 41.46 32.7632C42.9364 35.118 43.7091 37.8457 43.6872 40.625C43.6872 41.1775 43.9067 41.7074 44.2974 42.0981C44.6881 42.4888 45.218 42.7083 45.7705 42.7083C46.323 42.7083 46.853 42.4888 47.2437 42.0981C47.6343 41.7074 47.8538 41.1775 47.8538 40.625C47.8709 37.428 47.0701 34.2797 45.5277 31.4793C43.9853 28.6789 41.7525 26.3194 39.0413 24.625Z" fill="url(#paint0_linear_429_2373)"/>
<defs>
<linearGradient id="paint0_linear_429_2373" x1="24.9686" y1="7.29167" x2="24.9686" y2="42.7083" gradientUnits="userSpaceOnUse">
<stop stop-color="#AFF1D1"/>
<stop offset="1" stop-color="#006493"/>
</linearGradient>
</defs>
</svg>
