<svg width="50" height="50" fill="none" xmlns="http://www.w3.org/2000/svg"><path d="M43.75 41.667H8.333V37.5h6.25a2.083 2.083 0 000-4.167h-6.25v-4.166h14.583a2.083 2.083 0 000-4.167H8.333v-4.167H31.25a2.083 2.083 0 100-4.166H8.333V12.5h31.25a2.083 2.083 0 000-4.167H8.333V6.25a2.083 2.083 0 10-4.167 0v37.5a2.083 2.083 0 002.084 2.083h37.5a2.083 2.083 0 100-4.166z" fill="url(#paint0_linear_415_1361)"/><defs><linearGradient id="paint0_linear_415_1361" x1="25" y1="4.167" x2="25" y2="45.833" gradientUnits="userSpaceOnUse"><stop stop-color="#AFF1D1"/><stop offset="1" stop-color="#006493"/></linearGradient></defs></svg>