<svg width="50" height="50" fill="none" xmlns="http://www.w3.org/2000/svg"><path d="M41.438 19.896a2.083 2.083 0 00-1.854-1.146H29.167V6.25a2.084 2.084 0 00-1.438-2.083 2.083 2.083 0 00-2.333.75L8.73 27.833a2.083 2.083 0 00-.166 2.084 2.083 2.083 0 001.854 1.333h10.417v12.5a2.083 2.083 0 002.083 2.083 2.084 2.084 0 001.688-.854L41.27 22.063a2.084 2.084 0 00.167-2.167zM25 37.333v-8.166a2.083 2.083 0 00-2.083-2.084h-8.333L25 12.667v8.166a2.083 2.083 0 002.084 2.084h8.333L25 37.333z" fill="url(#paint0_linear_429_2383)"/><defs><linearGradient id="paint0_linear_429_2383" x1="25.012" y1="4.062" x2="25.012" y2="45.833" gradientUnits="userSpaceOnUse"><stop stop-color="#AFF1D1"/><stop offset="1" stop-color="#006493"/></linearGradient></defs></svg>