<svg width="50" height="50" fill="none" xmlns="http://www.w3.org/2000/svg"><path d="M46.875 30.208a4.167 4.167 0 00-4.167-4.166h-12.5a4.167 4.167 0 00-4.167 4.166h-6.25v-6.25h4.854a7.625 7.625 0 002.438-14.854 10.417 10.417 0 00-19.646 2.667 6.25 6.25 0 001.938 12.187h6.25v16.667a2.083 2.083 0 002.083 2.083h8.333a4.167 4.167 0 004.167 4.167h12.5a4.167 4.167 0 004.167-4.167v-4.166a4.167 4.167 0 00-.584-2.084c.375-.63.576-1.35.584-2.083v-4.167zm-37.5-10.416a2.083 2.083 0 010-4.167 2.083 2.083 0 002.083-2.083 6.25 6.25 0 0112.167-2.084 2.082 2.082 0 001.625 1.375 3.438 3.438 0 012.875 3.48 3.479 3.479 0 01-3.48 3.479H9.375zm16.666 18.75h-6.25v-4.167h6.25c.008.734.21 1.452.584 2.083a4.168 4.168 0 00-.584 2.084zm4.167 4.166v-4.166h12.5v4.166h-12.5zm0-8.333v-4.167h12.5v4.167h-12.5z" fill="url(#paint0_linear_430_2391)"/><defs><linearGradient id="paint0_linear_430_2391" x1="25.007" y1="3.192" x2="25.007" y2="46.875" gradientUnits="userSpaceOnUse"><stop stop-color="#AFF1D1"/><stop offset="1" stop-color="#006493"/></linearGradient></defs></svg>