<svg width="50" height="50" fill="none" xmlns="http://www.w3.org/2000/svg"><path d="M29.771 29.563l-6.854 6.854-2.688-2.688a2.084 2.084 0 10-2.958 2.938l4.167 4.166a2.084 2.084 0 002.958 0L32.73 32.5a2.083 2.083 0 10-2.958-2.938zm8.604-12.23a14.583 14.583 0 00-27.833 3.959 8.333 8.333 0 00-.792 15.937 2.084 2.084 0 101.334-3.896 4.166 4.166 0 01-2.75-3.958 4.167 4.167 0 014.166-4.167 2.083 2.083 0 002.084-2.083 10.417 10.417 0 0120.27-3.333 2.083 2.083 0 001.625 1.375 6.25 6.25 0 01.5 12.166A2.1 2.1 0 0037.5 37.5h.521a10.417 10.417 0 00.354-20.042v-.125z" fill="url(#paint0_linear_429_2377)"/><defs><linearGradient id="paint0_linear_429_2377" x1="24.996" y1="8.574" x2="24.996" y2="41.45" gradientUnits="userSpaceOnUse"><stop stop-color="#AFF1D1"/><stop offset="1" stop-color="#006493"/></linearGradient></defs></svg>