<svg width="50" height="50" fill="none" xmlns="http://www.w3.org/2000/svg"><path d="M38.375 15.042a14.583 14.583 0 00-27.833 3.937 8.333 8.333 0 00-.792 15.959c.216.066.44.101.667.104a2.11 2.11 0 10.667-4.167 4.167 4.167 0 01-2.75-3.792 4.167 4.167 0 014.166-4.166 2.083 2.083 0 002.084-2.084 10.417 10.417 0 0120.27-3.354 2.082 2.082 0 001.626 1.396 6.25 6.25 0 012.083 11.52 2.09 2.09 0 002.083 3.626A10.416 10.416 0 0045.834 25a10.416 10.416 0 00-7.459-9.958zm-7.562 9.25a5.688 5.688 0 01-4.583-.98 2.084 2.084 0 00-2.459 0 5.666 5.666 0 01-4.583.98 2.084 2.084 0 00-2.316 1.132c-.133.277-.203.58-.205.889v7.02a9.644 9.644 0 003.833 7.709l3.271 2.395a2.084 2.084 0 002.459 0l3.27-2.416a9.582 9.582 0 003.834-7.688v-7.02a2.082 2.082 0 00-2.521-2.021zm-1.646 9.041a5.46 5.46 0 01-2.083 4.167L25 39l-2.083-1.5a5.457 5.457 0 01-2.083-4.167v-4.75A9.75 9.75 0 0025 27.438a9.749 9.749 0 004.167 1.145v4.75z" fill="url(#paint0_linear_430_2387)"/><defs><linearGradient id="paint0_linear_430_2387" x1="25.007" y1="6.278" x2="25.007" y2="43.839" gradientUnits="userSpaceOnUse"><stop stop-color="#AFF1D1"/><stop offset="1" stop-color="#006493"/></linearGradient></defs></svg>