<svg width="50" height="50" fill="none" xmlns="http://www.w3.org/2000/svg"><path d="M25 4.167a20.833 20.833 0 100 41.666 20.833 20.833 0 000-41.666zm2.083 37.354v-1.938a2.083 2.083 0 00-4.166 0v1.938A16.666 16.666 0 018.478 27.083h1.938a2.084 2.084 0 000-4.166H8.478A16.666 16.666 0 0122.917 8.479v1.938a2.083 2.083 0 004.166 0V8.479a16.667 16.667 0 0114.438 14.438h-1.938a2.083 2.083 0 100 4.166h1.938a16.666 16.666 0 01-14.438 14.438zm4.459-25.792l-10.417 4.417c-.486.21-.873.598-1.084 1.083l-4.416 10.417a2.085 2.085 0 00.437 2.291c.385.393.91.618 1.459.626.288 0 .573-.064.833-.188l10.417-4.417a2.08 2.08 0 001.083-1.083l4.417-10.417a2.083 2.083 0 00-2.73-2.729zm-5.188 10.625l-4.75 2.084 2.083-4.75 4.75-2.084-2.083 4.75z" fill="url(#paint0_linear_415_1356)"/><defs><linearGradient id="paint0_linear_415_1356" x1="25" y1="4" x2="25" y2="46" gradientUnits="userSpaceOnUse"><stop stop-color="#AFF1D1"/><stop offset="1" stop-color="#006493"/></linearGradient></defs></svg>