<svg width="50" height="51" fill="none" xmlns="http://www.w3.org/2000/svg"><path d="M45.375 24.845l-4.167-5.229a2.086 2.086 0 00-1.625-.794h-12.5V6.274c0-.555-.22-1.087-.61-1.479a2.08 2.08 0 00-2.946 0c-.39.392-.61.924-.61 1.479v2.091h-12.5a2.077 2.077 0 00-1.625.795l-4.167 5.228a2.097 2.097 0 000 2.593l4.167 5.229a2.085 2.085 0 001.625.794h12.5v18.822H18.75a2.08 2.08 0 00-1.473.612 2.095 2.095 0 000 2.958c.39.392.92.613 1.473.613h12.5a2.08 2.08 0 001.473-.613 2.095 2.095 0 000-2.958 2.08 2.08 0 00-1.473-.612h-4.167v-8.365h12.5a2.079 2.079 0 001.625-.795l4.167-5.228a2.096 2.096 0 000-2.593zm-22.458-6.023h-11.5l-2.5-3.137 2.5-3.137h11.5v6.274zm15.666 10.456h-11.5v-6.274h11.5l2.5 3.137-2.5 3.137z" fill="url(#paint0_linear_414_1327)"/><defs><linearGradient id="paint0_linear_414_1327" x1="25" y1="4.183" x2="25" y2="46.009" gradientUnits="userSpaceOnUse"><stop stop-color="#AFF1D1"/><stop offset="1" stop-color="#006493"/></linearGradient></defs></svg>