<svg width="22" height="22" fill="none" xmlns="http://www.w3.org/2000/svg"><path d="M18.765 1.833H3.236A1.33 1.33 0 001.89 3.144v15.712a1.33 1.33 0 001.347 1.31h15.529a1.329 1.329 0 001.347-1.31V3.144a1.328 1.328 0 00-1.347-1.31zM7.416 17.178h-2.75v-8.25h2.75v8.25zM6.041 7.773a1.43 1.43 0 010-2.86 1.44 1.44 0 110 2.86zm11.293 9.405h-2.75v-4.427c0-1.11-.394-1.833-1.393-1.833a1.513 1.513 0 00-1.412.999 1.836 1.836 0 00-.091.669v4.583h-2.75V8.92h2.75v1.164a2.75 2.75 0 012.484-1.375c1.833 0 3.162 1.183 3.162 3.722v4.748z" fill="#FEFEFE"/></svg>