<svg width="189" height="33" fill="none" xmlns="http://www.w3.org/2000/svg"><path d="M37.35 0C27.132 0 22.255 6.127 17.765 12.956l-.058.087.087.058 1.748 1.14.087.057.058-.087c5.083-7.73 9.404-11.918 17.66-11.918h.106V0h-.103z" fill="#2CAD85"/><path d="M37.35 24.875c-8.256 0-12.577-4.19-17.66-11.92l-.037-.057h-.002c-.957-1.455-2.104-3.144-3.375-4.717a27.012 27.012 0 00-.256-.312l-.115-.142C12.767 3.979 9.504 1.744 5.633.696L5.236.588a16.38 16.38 0 00-.931-.202L4.181.362V23.01H5.99c3.118 0 5.63.126 7.758.748 1.468.428 2.916 1.153 4.302 2.157l.615.443.218.158-.052-.263c-.596-2.96-3.03-4.212-4.43-4.696-2.454-.717-5.253-.83-7.918-.843V3.36c2.438.927 4.59 2.471 6.762 4.848l.042.048.026.029a27.91 27.91 0 01.825.95 40.85 40.85 0 011.179 1.484l.14.187c.1.131.2.268.3.407l.124.168.263.367c.19.266.396.557.625.89.008.014.021.032.035.053l.013.019c.377.557.67.993.94 1.41l.032.047h.003c4.482 6.808 9.359 12.91 19.553 12.91h.105v-2.294h-.1v-.008z" fill="url(#paint0_linear_502_778)"/><path d="M28.047 27.062a19.924 19.924 0 01-2.913-1.704l-.037-.026-.045.01a11.44 11.44 0 00-.814.205c-2.55.746-4.519 2.411-5.51 3.388-.989-.977-2.96-2.642-5.51-3.388-1.909-.557-4.27-.672-7.231-.672H2.3V.097L2.207.09C1.52.03.815 0 .105 0H0v27.17h5.99c3.266 0 5.172.168 6.582.58 3.058.893 5.165 3.483 5.252 3.593l.822 1.043.082.105.081-.105.823-1.043c.021-.026 2.16-2.686 5.251-3.59.828-.241 1.822-.396 3.124-.486l.401-.026-.361-.179z" fill="url(#paint1_linear_502_778)"/><path opacity=".87" d="M29.871 7.246v12.672m4.853-14.654v16.64m-9.709-11.07v5.5" stroke="#2CAD85" stroke-width="3.3" stroke-miterlimit="10" stroke-linecap="round"/><path d="M47.226 14.15c0-5.612 3.142-8.921 7.679-8.921 4.537 0 7.68 3.325 7.68 8.921 0 5.613-3.143 9.061-7.68 9.061s-7.68-3.448-7.68-9.06zm12.184 0c0-3.895-1.769-6.248-4.505-6.248-2.736 0-4.505 2.356-4.505 6.248 0 3.893 1.769 6.388 4.505 6.388 2.736 0 4.505-2.493 4.505-6.388zm24.926-8.603h2.741c.095 0 .174.076.174.173v17a.174.174 0 01-.174.174h-2.741a.173.173 0 01-.174-.173v-17c0-.098.076-.174.174-.174zm5.628 8.733c0-5.677 3.567-9.051 7.978-9.051 2.111 0 3.806.974 4.906 2.082a.173.173 0 01.008.234l-1.432 1.72a.173.173 0 01-.253.013c-.865-.819-1.872-1.376-3.166-1.376-2.831 0-4.867 2.388-4.867 6.28 0 3.958 1.875 6.356 4.793 6.356 1.476 0 2.631-.649 3.585-1.642a.175.175 0 01.259.005l1.426 1.67a.179.179 0 01-.003.232c-1.397 1.56-3.179 2.411-5.383 2.411-4.379-.003-7.85-3.196-7.85-8.935zm14.468 6.263l1.577-1.85a.172.172 0 01.247-.015c1.232 1.116 2.842 1.857 4.406 1.857 1.958 0 3.034-.885 3.034-2.238 0-1.426-1.123-1.883-2.705-2.553l-2.38-1.03c-1.714-.711-3.52-2.064-3.52-4.598 0-2.763 2.449-4.89 5.847-4.89 1.978 0 3.897.793 5.254 2.1a.174.174 0 01.014.237l-1.377 1.694a.175.175 0 01-.245.024c-1.067-.87-2.214-1.38-3.646-1.38-1.65 0-2.725.77-2.725 2.039 0 1.363 1.326 1.867 2.768 2.456l2.348.982c2.073.859 3.52 2.164 3.52 4.677 0 2.813-2.344 5.156-6.251 5.156a8.996 8.996 0 01-6.153-2.427.178.178 0 01-.013-.241z" fill="#006493"/><path d="M118.705 14.119c0-5.544 3.034-9.024 7.497-9.024 1.977 0 3.514.943 4.461 1.975a.173.173 0 010 .23l-.491.558a.174.174 0 01-.256.002c-.933-.998-2.172-1.654-3.703-1.654-3.844 0-6.225 3.049-6.225 7.897 0 4.86 2.355 8 6.124 8 1.751 0 3.074-.688 4.308-2.014a.173.173 0 01.253-.003l.483.512c.06.066.063.168.002.237-1.321 1.484-2.887 2.38-5.112 2.38-4.323-.003-7.341-3.541-7.341-9.096zm15.153-8.707h.877c.095 0 .174.079.174.173v7.488h9.383V5.585c0-.094.079-.173.174-.173h.875c.095 0 .174.079.174.173v17.132a.175.175 0 01-.174.174h-.875a.175.175 0 01-.174-.174V14.14h-9.383v8.58a.175.175 0 01-.174.173h-.877a.175.175 0 01-.174-.173V5.585c0-.094.079-.173.174-.173zm20.244 0h.978c.073 0 .139.047.163.116l6.058 17.132a.174.174 0 01-.163.23h-.928a.173.173 0 01-.164-.117l-3.464-10.175c-.714-2.075-1.331-3.908-1.948-6.036h-.105c-.612 2.133-1.232 3.964-1.943 6.036l-3.512 10.175a.172.172 0 01-.163.118h-.865a.172.172 0 01-.163-.231l6.055-17.13a.173.173 0 01.164-.118zm-3.483 10.458h7.867v1.022h-7.867V15.87zm13.052-10.285c0-.094.079-.173.174-.173h4.84c3.488 0 5.771 1.274 5.771 4.615 0 3.186-2.283 4.838-5.771 4.838h-3.791v7.852a.175.175 0 01-.174.174h-.875a.175.175 0 01-.174-.174V5.585zm4.698 8.253c3.105 0 4.829-1.227 4.829-3.809 0-2.631-1.724-3.585-4.829-3.585h-3.472v7.396h3.472v-.002zm.044.67l1.171-.35 5.054 8.473a.175.175 0 01-.151.262h-1.015a.177.177 0 01-.15-.084l-4.909-8.302zm12.865-8.045h-5.412a.175.175 0 01-.174-.174v-.704c0-.094.079-.173.174-.173h12.047c.095 0 .174.079.174.173v.704a.175.175 0 01-.174.174h-5.412v16.254a.175.175 0 01-.174.174h-.875a.175.175 0 01-.174-.174V6.463z" fill="#858585"/><path d="M78.718 5.547h-1.692a.176.176 0 00-.166.12l-3.84 12.267-3.837-12.266a.172.172 0 00-.166-.121h-3.523a.175.175 0 00-.173.173v17c0 .095.079.174.174.174h2.433a.175.175 0 00.174-.173V10.768l3.757 12.003c.023.073.09.12.166.12h1.998c.077 0 .142-.05.166-.12l3.757-12.003v11.95c0 .095.079.174.174.174h2.433a.175.175 0 00.174-.174V5.72a.175.175 0 00-.174-.173h-1.835z" fill="#006493"/><defs><linearGradient id="paint0_linear_502_778" x1="4.181" y1="13.765" x2="37.456" y2="13.765" gradientUnits="userSpaceOnUse"><stop stop-color="#006493"/><stop offset=".641" stop-color="#09A980"/><stop offset="1" stop-color="#09AC7F"/></linearGradient><linearGradient id="paint1_linear_502_778" x1="0" y1="16.242" x2="28.409" y2="16.242" gradientUnits="userSpaceOnUse"><stop stop-color="#006493"/><stop offset=".641" stop-color="#09A980"/><stop offset="1" stop-color="#09AC7F"/></linearGradient></defs></svg>