<svg width="104" height="91" fill="none" xmlns="http://www.w3.org/2000/svg"><path d="M52 32C64.466 13.038 75.34 0 103.714 0H104v6.367h-.293C80.78 6.367 70.113 16.537 56 38l-3-4.5-1-1.5z" fill="#2CAD85" fill-opacity=".14"/><path d="M103.712 69.071c-22.927 0-34.925-11.632-49.038-33.095l-.103-.16h-.007c-2.657-4.04-5.842-8.73-9.37-13.099a74.006 74.006 0 00-.71-.867l-.322-.394C35.451 11.049 26.388 4.842 15.642 1.933l-1.105-.3a45.499 45.499 0 00-2.584-.561l-.344-.066v62.887h5.022c8.66 0 15.636.35 21.543 2.079 4.077 1.189 8.096 3.201 11.947 5.987l1.705 1.233.608.437-.147-.729c-1.654-8.22-8.41-11.698-12.298-13.04C33.174 57.87 25.4 57.556 18 57.52V9.327c6.772 2.574 12.745 6.862 18.777 13.462l.117.132.073.08c.344.38.688.766 1.025 1.152.425.489.85.977 1.266 1.488.63.758 1.252 1.517 1.838 2.26.249.307.483.613.717.927.249.32.483.627.718.933l.387.518c.279.365.557.744.835 1.13l.344.467a213.113 213.113 0 012.467 3.494c.022.036.059.087.095.145l.037.052a253.551 253.551 0 012.613 3.916l.088.131h.007C61.848 58.518 75.39 75.46 103.698 75.46h.292v-6.367h-.278v-.022z" fill="url(#paint0_linear_417_1244)" fill-opacity=".14"/><path d="M77.88 75.146a55.294 55.294 0 01-8.089-4.733l-.102-.073-.125.03c-.849.182-1.588.371-2.261.568-7.08 2.072-12.547 6.695-15.3 9.408-2.745-2.713-8.22-7.337-15.3-9.408-5.3-1.546-11.858-1.867-20.079-1.867H6.391V.27L6.127.248A66.74 66.74 0 00.293 0H0v75.445h16.632c9.07 0 14.362.467 18.278 1.612 8.492 2.48 14.34 9.67 14.582 9.977l2.284 2.895.227.292.227-.292 2.284-2.895c.058-.073 5.995-7.46 14.582-9.97 2.298-.67 5.058-1.1 8.674-1.349l1.113-.073-1.003-.496z" fill="url(#paint1_linear_417_1244)" fill-opacity=".14"/><path opacity=".87" d="M82.946 20.121V55.31m13.477-40.695v46.208m-26.96-30.74v15.272" stroke="#2CAD85" stroke-opacity=".14" stroke-width="3.3" stroke-miterlimit="10" stroke-linecap="round"/><defs><linearGradient id="paint0_linear_417_1244" x1="11.609" y1="38.221" x2="104.004" y2="38.221" gradientUnits="userSpaceOnUse"><stop stop-color="#006493"/><stop offset=".641" stop-color="#09A980"/><stop offset="1" stop-color="#09AC7F"/></linearGradient><linearGradient id="paint1_linear_417_1244" x1="-.001" y1="45.102" x2="78.885" y2="45.102" gradientUnits="userSpaceOnUse"><stop stop-color="#006493"/><stop offset=".641" stop-color="#09A980"/><stop offset="1" stop-color="#09AC7F"/></linearGradient></defs></svg>