<svg width="50" height="50" fill="none" xmlns="http://www.w3.org/2000/svg"><path d="M31.25 35.417a2.084 2.084 0 100 4.167 2.084 2.084 0 000-4.167zm-8.334 0H18.75a2.083 2.083 0 100 4.166h4.166a2.083 2.083 0 100-4.166zm0-12.5H18.75a2.083 2.083 0 100 4.166h4.166a2.083 2.083 0 100-4.166zm8.334 0a2.084 2.084 0 100 4.167 2.084 2.084 0 000-4.167zm16.666-6.25a6.25 6.25 0 00-6.25-6.25h-2.083a6.25 6.25 0 00-6.25-6.25H16.666a6.25 6.25 0 00-6.25 6.25H8.333a6.25 6.25 0 00-6.25 6.25v4.166A6.25 6.25 0 003.708 25a6.25 6.25 0 00-1.625 4.167v4.166a6.25 6.25 0 006.25 6.25h2.083a6.25 6.25 0 006.25 6.25h16.667a6.25 6.25 0 006.25-6.25h2.083a6.25 6.25 0 006.25-6.25v-4.166A6.25 6.25 0 0046.291 25a6.25 6.25 0 001.625-4.167v-4.166zm-37.5 18.75H8.333a2.083 2.083 0 01-2.083-2.084v-4.166a2.083 2.083 0 012.083-2.084h2.083a6.25 6.25 0 001.625 4.167 6.25 6.25 0 00-1.625 4.167zm0-12.5H8.333a2.083 2.083 0 01-2.083-2.084v-4.166a2.083 2.083 0 012.083-2.084h2.083a6.25 6.25 0 001.625 4.167 6.25 6.25 0 00-1.625 4.167zm25 16.666a2.083 2.083 0 01-2.083 2.084H16.666a2.083 2.083 0 01-2.083-2.084v-4.166a2.083 2.083 0 012.083-2.084h16.667a2.083 2.083 0 012.083 2.084v4.166zm0-12.5a2.083 2.083 0 01-2.083 2.084H16.666a2.083 2.083 0 01-2.083-2.084v-4.166a2.083 2.083 0 012.083-2.084h16.667a2.083 2.083 0 012.083 2.084v4.166zm0-12.5a2.083 2.083 0 01-2.083 2.084H16.666a2.083 2.083 0 01-2.083-2.084v-4.166a2.083 2.083 0 012.083-2.084h16.667a2.083 2.083 0 012.083 2.084v4.166zm8.334 18.75a2.083 2.083 0 01-2.084 2.084h-2.083a6.25 6.25 0 00-1.625-4.167 6.25 6.25 0 001.625-4.167h2.083a2.083 2.083 0 012.084 2.084v4.166zm0-12.5a2.083 2.083 0 01-2.084 2.084h-2.083a6.25 6.25 0 00-1.625-4.167 6.25 6.25 0 001.625-4.167h2.083a2.083 2.083 0 012.084 2.084v4.166zm-12.5-10.416a2.084 2.084 0 100 4.167 2.084 2.084 0 000-4.167zm-8.334 0H18.75a2.083 2.083 0 100 4.166h4.166a2.083 2.083 0 100-4.166z" fill="url(#paint0_linear_431_2399)"/><defs><linearGradient id="paint0_linear_431_2399" x1="25" y1="4.167" x2="25" y2="45.833" gradientUnits="userSpaceOnUse"><stop stop-color="#AFF1D1"/><stop offset="1" stop-color="#006493"/></linearGradient></defs></svg>