<svg xmlns="http://www.w3.org/2000/svg" xmlns:xlink="http://www.w3.org/1999/xlink"><defs>
<linearGradient id="paint0_linear_415_1361" x1="24.9998" y1="4.16667" x2="24.9998" y2="45.8333" gradientUnits="userSpaceOnUse">
<stop stop-color="#AFF1D1"/>
<stop offset="1" stop-color="#006493"/>
</linearGradient>

<linearGradient id="paint0_linear_429_2383" x1="25.0124" y1="4.0623" x2="25.0124" y2="45.8333" gradientUnits="userSpaceOnUse">
<stop stop-color="#AFF1D1"/>
<stop offset="1" stop-color="#006493"/>
</linearGradient>

<linearGradient id="paint0_linear_430_2387" x1="25.0071" y1="6.27768" x2="25.0071" y2="43.8387" gradientUnits="userSpaceOnUse">
<stop stop-color="#AFF1D1"/>
<stop offset="1" stop-color="#006493"/>
</linearGradient>

<linearGradient id="paint0_linear_430_2391" x1="25.0067" y1="3.19167" x2="25.0067" y2="46.875" gradientUnits="userSpaceOnUse">
<stop stop-color="#AFF1D1"/>
<stop offset="1" stop-color="#006493"/>
</linearGradient>

<linearGradient id="paint0_linear_429_2377" x1="24.9959" y1="8.57413" x2="24.9959" y2="41.4496" gradientUnits="userSpaceOnUse">
<stop stop-color="#AFF1D1"/>
<stop offset="1" stop-color="#006493"/>
</linearGradient>

<linearGradient id="paint0_linear_415_1356" x1="25" y1="4" x2="25" y2="46" gradientUnits="userSpaceOnUse">
<stop stop-color="#AFF1D1"/>
<stop offset="1" stop-color="#006493"/>
</linearGradient>

<linearGradient id="paint0_linear_414_1327" x1="25" y1="4.1826" x2="25" y2="46.0086" gradientUnits="userSpaceOnUse">
<stop stop-color="#AFF1D1"/>
<stop offset="1" stop-color="#006493"/>
</linearGradient>

<linearGradient id="paint0_linear_502_778" x1="4.18118" y1="13.7646" x2="37.4555" y2="13.7646" gradientUnits="userSpaceOnUse">
<stop stop-color="#006493"/>
<stop offset="0.6408" stop-color="#09A980"/>
<stop offset="1" stop-color="#09AC7F"/>
</linearGradient>
<linearGradient id="paint1_linear_502_778" x1="-0.000210899" y1="16.2425" x2="28.4086" y2="16.2425" gradientUnits="userSpaceOnUse">
<stop stop-color="#006493"/>
<stop offset="0.6408" stop-color="#09A980"/>
<stop offset="1" stop-color="#09AC7F"/>
</linearGradient>

<linearGradient id="paint0_linear_417_1244" x1="11.6088" y1="38.2215" x2="104.004" y2="38.2215" gradientUnits="userSpaceOnUse">
<stop stop-color="#006493"/>
<stop offset="0.6408" stop-color="#09A980"/>
<stop offset="1" stop-color="#09AC7F"/>
</linearGradient>
<linearGradient id="paint1_linear_417_1244" x1="-0.000585621" y1="45.102" x2="78.8845" y2="45.102" gradientUnits="userSpaceOnUse">
<stop stop-color="#006493"/>
<stop offset="0.6408" stop-color="#09A980"/>
<stop offset="1" stop-color="#09AC7F"/>
</linearGradient>

<linearGradient id="paint0_linear_431_2399" x1="24.9997" y1="4.16667" x2="24.9997" y2="45.8333" gradientUnits="userSpaceOnUse">
<stop stop-color="#AFF1D1"/>
<stop offset="1" stop-color="#006493"/>
</linearGradient>

<linearGradient id="paint0_linear_429_2373" x1="24.9686" y1="7.29167" x2="24.9686" y2="42.7083" gradientUnits="userSpaceOnUse">
<stop stop-color="#AFF1D1"/>
<stop offset="1" stop-color="#006493"/>
</linearGradient>
</defs><symbol id="arrow-right-dark" viewBox="0 0 25 8">
<path d="M23.9766 4.35355C24.1719 4.15829 24.1719 3.84171 23.9766 3.64645L20.7946 0.464466C20.5994 0.269204 20.2828 0.269204 20.0875 0.464466C19.8922 0.659728 19.8922 0.976311 20.0875 1.17157L22.9159 4L20.0875 6.82843C19.8922 7.02369 19.8922 7.34027 20.0875 7.53553C20.2828 7.7308 20.5994 7.7308 20.7946 7.53553L23.9766 4.35355ZM0.132324 4.5H23.623V3.5H0.132324V4.5Z"/>
</symbol><symbol id="arrow-right" viewBox="0 0 25 8">
<path d="M24.3536 4.35355C24.5488 4.15829 24.5488 3.84171 24.3536 3.64645L21.1716 0.464466C20.9763 0.269204 20.6597 0.269204 20.4645 0.464466C20.2692 0.659728 20.2692 0.976311 20.4645 1.17157L23.2929 4L20.4645 6.82843C20.2692 7.02369 20.2692 7.34027 20.4645 7.53553C20.6597 7.7308 20.9763 7.7308 21.1716 7.53553L24.3536 4.35355ZM0 4.5H24V3.5H0V4.5Z"/>
</symbol><symbol id="bar-graph" viewBox="0 0 50 50">
<path d="M43.7498 41.6667H8.33317V37.5H14.5832C15.1357 37.5 15.6656 37.2805 16.0563 36.8898C16.447 36.4991 16.6665 35.9692 16.6665 35.4167C16.6665 34.8641 16.447 34.3342 16.0563 33.9435C15.6656 33.5528 15.1357 33.3333 14.5832 33.3333H8.33317V29.1667H22.9165C23.469 29.1667 23.9989 28.9472 24.3896 28.5565C24.7803 28.1658 24.9998 27.6359 24.9998 27.0833C24.9998 26.5308 24.7803 26.0009 24.3896 25.6102C23.9989 25.2195 23.469 25 22.9165 25H8.33317V20.8333H31.2498C31.8024 20.8333 32.3323 20.6138 32.723 20.2231C33.1137 19.8324 33.3332 19.3025 33.3332 18.75C33.3332 18.1975 33.1137 17.6676 32.723 17.2769C32.3323 16.8862 31.8024 16.6667 31.2498 16.6667H8.33317V12.5H39.5832C40.1357 12.5 40.6656 12.2805 41.0563 11.8898C41.447 11.4991 41.6665 10.9692 41.6665 10.4167C41.6665 9.86414 41.447 9.33423 41.0563 8.94353C40.6656 8.55283 40.1357 8.33334 39.5832 8.33334H8.33317V6.25001C8.33317 5.69747 8.11368 5.16757 7.72298 4.77687C7.33228 4.38617 6.80237 4.16667 6.24984 4.16667C5.6973 4.16667 5.1674 4.38617 4.7767 4.77687C4.386 5.16757 4.1665 5.69747 4.1665 6.25001V43.75C4.1665 44.3025 4.386 44.8324 4.7767 45.2231C5.1674 45.6138 5.6973 45.8333 6.24984 45.8333H43.7498C44.3024 45.8333 44.8323 45.6138 45.223 45.2231C45.6137 44.8324 45.8332 44.3025 45.8332 43.75C45.8332 43.1975 45.6137 42.6676 45.223 42.2769C44.8323 41.8862 44.3024 41.6667 43.7498 41.6667Z" fill="url(#paint0_linear_415_1361)"/>

</symbol><symbol id="bolt" viewBox="0 0 50 50">
<path d="M41.4378 19.8958C41.2647 19.5523 40.9998 19.2633 40.6725 19.0611C40.3453 18.8588 39.9684 18.7512 39.5837 18.75H29.167V6.24999C29.1893 5.79308 29.0607 5.34152 28.8009 4.96499C28.5411 4.58847 28.1646 4.30792 27.7295 4.16666C27.3112 4.02904 26.8601 4.02749 26.4409 4.16224C26.0217 4.29699 25.6559 4.5611 25.3962 4.91666L8.72949 27.8333C8.52067 28.1351 8.39528 28.4867 8.36601 28.8526C8.33674 29.2184 8.40464 29.5855 8.56282 29.9167C8.70849 30.2953 8.96155 30.6232 9.29093 30.86C9.6203 31.0969 10.0117 31.2324 10.417 31.25H20.8337V43.75C20.834 44.1893 20.9732 44.6173 21.2314 44.9728C21.4895 45.3282 21.8535 45.593 22.2712 45.7292C22.4805 45.794 22.6979 45.8291 22.917 45.8333C23.2457 45.8342 23.57 45.7572 23.8633 45.6088C24.1565 45.4603 24.4105 45.2446 24.6045 44.9792L41.2712 22.0625C41.4956 21.7517 41.63 21.3849 41.6594 21.0026C41.6888 20.6203 41.6121 20.2373 41.4378 19.8958ZM25.0003 37.3333V29.1667C25.0003 28.6141 24.7808 28.0842 24.3901 27.6935C23.9994 27.3028 23.4695 27.0833 22.917 27.0833H14.5837L25.0003 12.6667V20.8333C25.0003 21.3859 25.2198 21.9158 25.6105 22.3065C26.0012 22.6972 26.5311 22.9167 27.0837 22.9167H35.417L25.0003 37.3333Z" fill="url(#paint0_linear_429_2383)"/>

</symbol><symbol id="burger" viewBox="0 0 32 22">
<line x1="1" y1="1" x2="31" y2="1" stroke="#010E1A" stroke-width="2" stroke-linecap="round"/>
<line x1="1" y1="11" x2="31" y2="11" stroke="#010E1A" stroke-width="2" stroke-linecap="round"/>
<line x1="1" y1="21" x2="31" y2="21" stroke="#010E1A" stroke-width="2" stroke-linecap="round"/>
</symbol><symbol id="chevron" viewBox="0 0 11 12">
<path d="M6.79704 9.20835C6.72856 9.20858 6.66091 9.19347 6.59904 9.16412C6.53718 9.13478 6.48267 9.09194 6.43954 9.03876L4.22579 6.28876C4.15837 6.20675 4.12152 6.10388 4.12152 5.99772C4.12152 5.89156 4.15837 5.78869 4.22579 5.70668L6.51745 2.95668C6.59525 2.86308 6.70704 2.80422 6.82824 2.79305C6.94943 2.78187 7.0701 2.8193 7.1637 2.8971C7.2573 2.97489 7.31616 3.08669 7.32734 3.20788C7.33851 3.32908 7.30108 3.44975 7.22329 3.54335L5.17454 6.00001L7.15454 8.45668C7.21058 8.52396 7.24618 8.60588 7.25713 8.69276C7.26807 8.77963 7.2539 8.86783 7.2163 8.9469C7.17869 9.02598 7.11921 9.09262 7.04491 9.13896C6.97061 9.18529 6.88459 9.20937 6.79704 9.20835Z"/>
</symbol><symbol id="clock" viewBox="0 0 16 16">
  <path d="M8 3.5a.5.5 0 0 0-1 0V9a.5.5 0 0 0 .252.434l3.5 2a.5.5 0 0 0 .496-.868L8 8.71V3.5z"/>
  <path d="M8 16A8 8 0 1 0 8 0a8 8 0 0 0 0 16zm7-8A7 7 0 1 1 1 8a7 7 0 0 1 14 0z"/>
</symbol><symbol id="cloud-shield" viewBox="0 0 50 50">
<path d="M38.3753 15.0417C37.1024 12.1167 34.9055 9.68974 32.1213 8.13276C29.3371 6.57578 26.1192 5.97465 22.9606 6.42147C19.8021 6.8683 16.8772 8.33844 14.6342 10.6066C12.3911 12.8748 10.9536 15.8159 10.542 18.9792C8.79657 19.4043 7.23529 20.382 6.0908 21.7667C4.94632 23.1513 4.27991 24.8687 4.1909 26.6629C4.1019 28.4571 4.59506 30.232 5.59688 31.7231C6.5987 33.2143 8.05555 34.3417 9.75029 34.9375C9.96635 35.0041 10.1909 35.0391 10.417 35.0417C10.9695 35.1301 11.5345 34.9954 11.9877 34.6672C12.4409 34.339 12.7452 33.8442 12.8336 33.2917C12.922 32.7391 12.7873 32.1741 12.4591 31.7209C12.1309 31.2677 11.6362 30.9634 11.0836 30.875C10.298 30.5914 9.61577 30.0783 9.1254 29.4022C8.63503 28.726 8.35917 27.9182 8.33362 27.0833C8.33362 25.9783 8.77261 24.9185 9.55401 24.1371C10.3354 23.3556 11.3952 22.9167 12.5003 22.9167C13.0528 22.9167 13.5827 22.6972 13.9734 22.3065C14.3641 21.9158 14.5836 21.3859 14.5836 20.8333C14.5889 18.3693 15.4675 15.987 17.0633 14.1095C18.6591 12.2321 20.8688 10.9811 23.2998 10.5789C25.7307 10.1767 28.2256 10.6492 30.3411 11.9125C32.4566 13.1759 34.0557 15.1482 34.8545 17.4792C34.9735 17.8372 35.1876 18.1561 35.4738 18.4019C35.76 18.6478 36.1076 18.8113 36.4795 18.875C37.7322 19.1017 38.8859 19.7057 39.7861 20.606C40.6863 21.5063 41.29 22.6601 41.5166 23.9129C41.7431 25.1657 41.5817 26.4579 41.0538 27.6164C40.5259 28.775 39.6568 29.7447 38.5628 30.3958C38.0821 30.6721 37.7308 31.128 37.5863 31.6633C37.4417 32.1985 37.5157 32.7693 37.792 33.25C38.0682 33.7307 38.5241 34.082 39.0594 34.2265C39.5947 34.3711 40.1654 34.2971 40.6461 34.0208C42.2257 33.104 43.5365 31.7879 44.447 30.2046C45.3575 28.6213 45.8357 26.8264 45.8336 25C45.8273 22.7586 45.0982 20.579 43.7545 18.785C42.4109 16.991 40.5244 15.6782 38.3753 15.0417ZM30.8128 24.2917C30.0231 24.4634 29.2059 24.465 28.4156 24.2961C27.6253 24.1273 26.88 23.792 26.2295 23.3125C25.8727 23.0518 25.4422 22.9113 25.0003 22.9113C24.5584 22.9113 24.1279 23.0518 23.7711 23.3125C23.1212 23.7932 22.376 24.1292 21.5854 24.2981C20.7949 24.467 19.9774 24.4648 19.1878 24.2917C18.8835 24.226 18.5683 24.2293 18.2655 24.3014C17.9627 24.3735 17.6798 24.5125 17.4378 24.7083C17.1988 24.9022 17.0057 25.1466 16.8724 25.424C16.7392 25.7013 16.669 26.0048 16.667 26.3125V33.3333C16.6653 34.8273 17.0107 36.3012 17.676 37.6389C18.3412 38.9765 19.308 40.1414 20.5003 41.0417L23.7711 43.4375C24.1279 43.6982 24.5584 43.8387 25.0003 43.8387C25.4422 43.8387 25.8727 43.6982 26.2295 43.4375L29.5003 41.0208C30.6933 40.1261 31.6611 38.9652 32.3265 37.6306C32.992 36.2961 33.3369 34.8246 33.3336 33.3333V26.3125C33.3316 26.0048 33.2614 25.7013 33.1281 25.424C32.9948 25.1466 32.8018 24.9022 32.5628 24.7083C32.3208 24.5125 32.0379 24.3735 31.7351 24.3014C31.4322 24.2293 31.1171 24.226 30.8128 24.2917ZM29.167 33.3333C29.1486 34.1385 28.9523 34.9297 28.5921 35.6501C28.2319 36.3705 27.7168 37.0022 27.0836 37.5L25.0003 39L22.917 37.5C22.2838 37.0022 21.7686 36.3705 21.4085 35.6501C21.0483 34.9297 20.852 34.1385 20.8336 33.3333V28.5833C22.2907 28.5179 23.7146 28.1263 25.0003 27.4375C26.286 28.1263 27.7098 28.5179 29.167 28.5833V33.3333Z" fill="url(#paint0_linear_430_2387)"/>

</symbol><symbol id="cloud-web" viewBox="0 0 50 50">
<path d="M46.8747 30.2083C46.8747 29.1033 46.4357 28.0435 45.6543 27.2621C44.8729 26.4807 43.8131 26.0417 42.708 26.0417H30.208C29.1029 26.0417 28.0431 26.4807 27.2617 27.2621C26.4803 28.0435 26.0413 29.1033 26.0413 30.2083H19.7913V23.9583H24.6455C26.4559 23.9614 28.2084 23.3201 29.5893 22.1493C30.9701 20.9785 31.8894 19.3546 32.1826 17.5681C32.4757 15.7815 32.1237 13.949 31.1894 12.3983C30.255 10.8476 28.7994 9.67989 27.083 9.10417C26.1303 7.11759 24.5723 5.48422 22.6329 4.43886C20.6935 3.39351 18.4726 2.98999 16.2894 3.28633C14.1062 3.58267 12.0732 4.5636 10.4826 6.0881C8.89207 7.61261 7.82582 9.60219 7.43717 11.7708C6.02631 12.2346 4.82667 13.1855 4.05322 14.4533C3.27976 15.7211 2.98303 17.2229 3.2162 18.6896C3.44936 20.1563 4.19719 21.4921 5.32568 22.4575C6.45416 23.423 7.88956 23.955 9.37467 23.9583H15.6247V40.625C15.6247 41.1775 15.8442 41.7074 16.2349 42.0981C16.6256 42.4888 17.1555 42.7083 17.708 42.7083H26.0413C26.0413 43.8134 26.4803 44.8732 27.2617 45.6546C28.0431 46.436 29.1029 46.875 30.208 46.875H42.708C43.8131 46.875 44.8729 46.436 45.6543 45.6546C46.4357 44.8732 46.8747 43.8134 46.8747 42.7083V38.5417C46.8671 37.808 46.6658 37.0893 46.2913 36.4583C46.6658 35.8274 46.8671 35.1087 46.8747 34.375V30.2083ZM9.37467 19.7917C8.82214 19.7917 8.29223 19.5722 7.90153 19.1815C7.51083 18.7908 7.29134 18.2609 7.29134 17.7083C7.29134 17.1558 7.51083 16.6259 7.90153 16.2352C8.29223 15.8445 8.82214 15.625 9.37467 15.625C9.92721 15.625 10.4571 15.4055 10.8478 15.0148C11.2385 14.6241 11.458 14.0942 11.458 13.5417C11.4412 12.0549 11.955 10.6109 12.9071 9.46883C13.8592 8.3268 15.1872 7.56161 16.6528 7.31066C18.1183 7.05972 19.6253 7.33946 20.9031 8.09965C22.1809 8.85984 23.1459 10.0507 23.6247 11.4583C23.7469 11.8125 23.9623 12.1271 24.2483 12.369C24.5343 12.611 24.8802 12.7714 25.2497 12.8333C26.068 12.9688 26.8098 13.3956 27.3381 14.035C27.8665 14.6744 28.1459 15.4833 28.1247 16.3125C28.1247 17.2352 27.7581 18.1202 27.1056 18.7726C26.4532 19.4251 25.5682 19.7917 24.6455 19.7917H9.37467ZM26.0413 38.5417H19.7913V34.375H26.0413C26.049 35.1087 26.2502 35.8274 26.6247 36.4583C26.2502 37.0893 26.049 37.808 26.0413 38.5417ZM30.208 42.7083V38.5417H42.708V42.7083H30.208ZM30.208 34.375V30.2083H42.708V34.375H30.208Z" fill="url(#paint0_linear_430_2391)"/>

</symbol><symbol id="cloud" viewBox="0 0 50 50">
<path d="M29.7711 29.5625L22.9169 36.4167L20.2294 33.7292C20.0357 33.5339 19.8053 33.3789 19.5514 33.2731C19.2976 33.1674 19.0252 33.1129 18.7502 33.1129C18.4752 33.1129 18.2029 33.1674 17.949 33.2731C17.6951 33.3789 17.4647 33.5339 17.2711 33.7292C16.883 34.1195 16.6652 34.6475 16.6652 35.1979C16.6652 35.7483 16.883 36.2763 17.2711 36.6667L21.4377 40.8333C21.6314 41.0286 21.8618 41.1836 22.1157 41.2894C22.3696 41.3951 22.6419 41.4496 22.9169 41.4496C23.1919 41.4496 23.4642 41.3951 23.7181 41.2894C23.972 41.1836 24.2024 41.0286 24.3961 40.8333L32.7294 32.5C33.1174 32.1097 33.3352 31.5816 33.3352 31.0312C33.3352 30.4809 33.1174 29.9528 32.7294 29.5625C32.5357 29.3672 32.3053 29.2122 32.0514 29.1065C31.7976 29.0007 31.5252 28.9463 31.2502 28.9463C30.9752 28.9463 30.7029 29.0007 30.449 29.1065C30.1951 29.2122 29.9647 29.3672 29.7711 29.5625ZM38.3752 17.3333C37.1009 14.4079 34.9022 11.9812 32.1163 10.4253C29.3305 8.86941 26.1112 8.27015 22.9521 8.71942C19.7929 9.1687 16.8684 10.6417 14.6267 12.9126C12.3851 15.1835 10.9501 18.127 10.5419 21.2917C8.80438 21.7228 7.25188 22.7019 6.11427 24.0842C4.97665 25.4665 4.31441 27.1783 4.2256 28.9663C4.13678 30.7543 4.62611 32.5234 5.62114 34.0116C6.61617 35.4998 8.06399 36.628 9.75022 37.2292C10.0163 37.3688 10.3095 37.4492 10.6096 37.4649C10.9097 37.4806 11.2097 37.4311 11.4889 37.32C11.7681 37.2088 12.0199 37.0385 12.2271 36.8209C12.4344 36.6032 12.592 36.3433 12.6893 36.059C12.7866 35.7747 12.8213 35.4726 12.7909 35.1737C12.7605 34.8747 12.6658 34.5858 12.5132 34.3269C12.3607 34.068 12.1539 33.8451 11.9072 33.6736C11.6604 33.5021 11.3794 33.386 11.0836 33.3333C10.2715 33.0398 9.57077 32.5013 9.07813 31.7921C8.58549 31.083 8.3253 30.2384 8.33356 29.375C8.33356 28.2699 8.77254 27.2101 9.55395 26.4287C10.3353 25.6473 11.3952 25.2083 12.5002 25.2083C13.0528 25.2083 13.5827 24.9888 13.9734 24.5981C14.3641 24.2074 14.5836 23.6775 14.5836 23.125C14.5938 20.6628 15.4758 18.2837 17.0733 16.41C18.6707 14.5363 20.8803 13.289 23.3099 12.8895C25.7395 12.49 28.2321 12.964 30.3455 14.2276C32.4588 15.4911 34.0563 17.4624 34.8544 19.7917C34.9766 20.1458 35.192 20.4604 35.478 20.7024C35.764 20.9444 36.1099 21.1047 36.4794 21.1667C37.867 21.4289 39.125 22.1533 40.0482 23.2219C40.9714 24.2906 41.5056 25.6403 41.5636 27.0513C41.6215 28.4623 41.2 29.8514 40.3675 30.9922C39.5351 32.1329 38.3408 32.9581 36.9794 33.3333C36.4269 33.4024 35.9244 33.6881 35.5825 34.1277C35.2407 34.5672 35.0874 35.1245 35.1565 35.6771C35.2255 36.2296 35.5113 36.7321 35.9508 37.0739C36.3903 37.4158 36.9477 37.5691 37.5002 37.5H38.0211C40.2135 36.9206 42.1571 35.6416 43.5565 33.8572C44.9559 32.0728 45.7348 29.8804 45.7749 27.6131C45.8149 25.3457 45.114 23.1272 43.7785 21.2944C42.443 19.4617 40.5459 18.1148 38.3752 17.4583V17.3333Z" fill="url(#paint0_linear_429_2377)"/>

</symbol><symbol id="coin" viewBox="0 0 16 16">
  <path d="M5.5 9.511c.076.954.83 1.697 2.182 1.785V12h.6v-.709c1.4-.098 2.218-.846 2.218-1.932 0-.987-.626-1.496-1.745-1.76l-.473-.112V5.57c.6.068.982.396 1.074.85h1.052c-.076-.919-.864-1.638-2.126-1.716V4h-.6v.719c-1.195.117-2.01.836-2.01 1.853 0 .9.606 1.472 1.613 1.707l.397.098v2.034c-.615-.093-1.022-.43-1.114-.9H5.5zm2.177-2.166c-.59-.137-.91-.416-.91-.836 0-.47.345-.822.915-.925v1.76h-.005zm.692 1.193c.717.166 1.048.435 1.048.91 0 .542-.412.914-1.135.982V8.518l.087.02z"/>
  <path d="M8 15A7 7 0 1 1 8 1a7 7 0 0 1 0 14zm0 1A8 8 0 1 0 8 0a8 8 0 0 0 0 16z"/>
  <path d="M8 13.5a5.5 5.5 0 1 1 0-11 5.5 5.5 0 0 1 0 11zm0 .5A6 6 0 1 0 8 2a6 6 0 0 0 0 12z"/>
</symbol><symbol id="compass" viewBox="0 0 50 50">
<path d="M24.9998 4.16667C20.8794 4.16667 16.8515 5.38853 13.4255 7.67772C9.99944 9.96692 7.32918 13.2206 5.75236 17.0274C4.17553 20.8342 3.76296 25.0231 4.56682 29.0644C5.37068 33.1057 7.35486 36.8178 10.2685 39.7314C13.182 42.645 16.8942 44.6292 20.9355 45.433C24.9767 46.2369 29.1656 45.8243 32.9724 44.2475C36.7792 42.6707 40.0329 40.0004 42.3221 36.5744C44.6113 33.1484 45.8332 29.1204 45.8332 25C45.8332 22.2641 45.2943 19.555 44.2473 17.0274C43.2004 14.4998 41.6658 12.2032 39.7312 10.2686C37.7967 8.33406 35.5 6.79949 32.9724 5.75251C30.4448 4.70554 27.7357 4.16667 24.9998 4.16667ZM27.0832 41.5208V39.5833C27.0832 39.0308 26.8637 38.5009 26.473 38.1102C26.0823 37.7195 25.5524 37.5 24.9998 37.5C24.4473 37.5 23.9174 37.7195 23.5267 38.1102C23.136 38.5009 22.9165 39.0308 22.9165 39.5833V41.5208C19.2498 41.0559 15.8417 39.3852 13.2282 36.7717C10.6146 34.1582 8.944 30.75 8.47901 27.0833H10.4165C10.969 27.0833 11.499 26.8638 11.8897 26.4731C12.2804 26.0824 12.4998 25.5525 12.4998 25C12.4998 24.4475 12.2804 23.9176 11.8897 23.5269C11.499 23.1362 10.969 22.9167 10.4165 22.9167H8.47901C8.944 19.25 10.6146 15.8418 13.2282 13.2283C15.8417 10.6148 19.2498 8.94416 22.9165 8.47917V10.4167C22.9165 10.9692 23.136 11.4991 23.5267 11.8898C23.9174 12.2805 24.4473 12.5 24.9998 12.5C25.5524 12.5 26.0823 12.2805 26.473 11.8898C26.8637 11.4991 27.0832 10.9692 27.0832 10.4167V8.47917C30.7499 8.94416 34.158 10.6148 36.7715 13.2283C39.3851 15.8418 41.0557 19.25 41.5207 22.9167H39.5832C39.0306 22.9167 38.5007 23.1362 38.11 23.5269C37.7193 23.9176 37.4998 24.4475 37.4998 25C37.4998 25.5525 37.7193 26.0824 38.11 26.4731C38.5007 26.8638 39.0306 27.0833 39.5832 27.0833H41.5207C41.0557 30.75 39.3851 34.1582 36.7715 36.7717C34.158 39.3852 30.7499 41.0559 27.0832 41.5208ZM31.5415 15.7292L21.1248 20.1458C20.6392 20.3562 20.2519 20.7436 20.0415 21.2292L15.6248 31.6458C15.4608 32.0279 15.4148 32.4503 15.4927 32.8587C15.5707 33.2671 15.7691 33.6428 16.0623 33.9375C16.447 34.33 16.9712 34.5547 17.5207 34.5625C17.8089 34.5628 18.0936 34.4987 18.354 34.375L28.7707 29.9583C29.2563 29.7479 29.6436 29.3606 29.854 28.875L34.2707 18.4583C34.4317 18.0766 34.4752 17.6555 34.3957 17.2489C34.3161 16.8423 34.1172 16.4686 33.8242 16.1756C33.5312 15.8827 33.1576 15.6837 32.751 15.6042C32.3444 15.5247 31.9233 15.5682 31.5415 15.7292ZM26.354 26.3542L21.604 28.4375L23.6873 23.6875L28.4373 21.6042L26.354 26.3542Z" fill="url(#paint0_linear_415_1356)"/>

</symbol><symbol id="directions" viewBox="0 0 50 51">
<path d="M45.375 24.8446L41.2084 19.6164C41.0143 19.3699 40.7675 19.1705 40.4862 19.0329C40.2049 18.8953 39.8963 18.8231 39.5834 18.8217H27.0834V6.2739C27.0834 5.71925 26.8639 5.18732 26.4732 4.79513C26.0825 4.40293 25.5526 4.1826 25 4.1826C24.4475 4.1826 23.9176 4.40293 23.5269 4.79513C23.1362 5.18732 22.9167 5.71925 22.9167 6.2739V8.3652H10.4167C10.1038 8.36665 9.79517 8.43884 9.51385 8.57642C9.23253 8.714 8.9857 8.91343 8.79168 9.15989L4.62502 14.3881C4.33437 14.7574 4.17627 15.2142 4.17627 15.6847C4.17627 16.1553 4.33437 16.6121 4.62502 16.9813L8.79168 22.2096C8.9857 22.4561 9.23253 22.6555 9.51385 22.7931C9.79517 22.9306 10.1038 23.0028 10.4167 23.0043H22.9167V41.826H18.75C18.1975 41.826 17.6676 42.0463 17.2769 42.4385C16.8862 42.8307 16.6667 43.3626 16.6667 43.9173C16.6667 44.4719 16.8862 45.0039 17.2769 45.396C17.6676 45.7882 18.1975 46.0086 18.75 46.0086H31.25C31.8026 46.0086 32.3325 45.7882 32.7232 45.396C33.1139 45.0039 33.3334 44.4719 33.3334 43.9173C33.3334 43.3626 33.1139 42.8307 32.7232 42.4385C32.3325 42.0463 31.8026 41.826 31.25 41.826H27.0834V33.4608H39.5834C39.8963 33.4593 40.2049 33.3871 40.4862 33.2496C40.7675 33.112 41.0143 32.9126 41.2084 32.6661L45.375 27.4378C45.6657 27.0686 45.8238 26.6118 45.8238 26.1412C45.8238 25.6707 45.6657 25.2138 45.375 24.8446ZM22.9167 18.8217H11.4167L8.91668 15.6847L11.4167 12.5478H22.9167V18.8217ZM38.5834 29.2782H27.0834V23.0043H38.5834L41.0833 26.1412L38.5834 29.2782Z" fill="url(#paint0_linear_414_1327)"/>

</symbol><symbol id="facebook" viewBox="0 0 24 24">
<path d="M20.9 2H3.1C2.80826 2 2.52847 2.11589 2.32218 2.32218C2.11589 2.52847 2 2.80826 2 3.1V20.9C2 21.0445 2.02845 21.1875 2.08373 21.321C2.13901 21.4544 2.22004 21.5757 2.32218 21.6778C2.42433 21.78 2.54559 21.861 2.67905 21.9163C2.81251 21.9715 2.95555 22 3.1 22H12.68V14.25H10.08V11.25H12.68V9C12.6261 8.47176 12.6885 7.93813 12.8627 7.43654C13.0369 6.93495 13.3188 6.47755 13.6885 6.09641C14.0582 5.71528 14.5068 5.41964 15.0028 5.23024C15.4989 5.04083 16.0304 4.96225 16.56 5C17.3383 4.99521 18.1163 5.03528 18.89 5.12V7.82H17.3C16.04 7.82 15.8 8.42 15.8 9.29V11.22H18.8L18.41 14.22H15.8V22H20.9C21.0445 22 21.1875 21.9715 21.321 21.9163C21.4544 21.861 21.5757 21.78 21.6778 21.6778C21.78 21.5757 21.861 21.4544 21.9163 21.321C21.9715 21.1875 22 21.0445 22 20.9V3.1C22 2.95555 21.9715 2.81251 21.9163 2.67905C21.861 2.54559 21.78 2.42433 21.6778 2.32218C21.5757 2.22004 21.4544 2.13901 21.321 2.08373C21.1875 2.02845 21.0445 2 20.9 2Z"/>
</symbol><symbol id="instagram" viewBox="0 0 24 24">
<path d="M12 9.52C11.5095 9.52 11.03 9.66545 10.6222 9.93795C10.2144 10.2105 9.89648 10.5978 9.70878 11.0509C9.52107 11.5041 9.47196 12.0028 9.56765 12.4838C9.66334 12.9649 9.89954 13.4068 10.2464 13.7536C10.5932 14.1005 11.0351 14.3367 11.5162 14.4323C11.9972 14.528 12.4959 14.4789 12.9491 14.2912C13.4022 14.1035 13.7895 13.7856 14.062 13.3778C14.3346 12.97 14.48 12.4905 14.48 12C14.48 11.6743 14.4159 11.3518 14.2912 11.0509C14.1666 10.7501 13.9839 10.4767 13.7536 10.2464C13.5233 10.0161 13.2499 9.83341 12.9491 9.70878C12.6482 9.58415 12.3257 9.52 12 9.52ZM21.93 7.07C21.9247 6.29776 21.7825 5.53257 21.51 4.81C21.3093 4.28126 20.9987 3.80109 20.5988 3.40119C20.1989 3.00128 19.7187 2.69072 19.19 2.49C18.4674 2.21746 17.7022 2.07526 16.93 2.07C15.64 2 15.26 2 12 2C8.74 2 8.36 2 7.07 2.07C6.29776 2.07526 5.53257 2.21746 4.81 2.49C4.28126 2.69072 3.80109 3.00128 3.40119 3.40119C3.00128 3.80109 2.69072 4.28126 2.49 4.81C2.21746 5.53257 2.07526 6.29776 2.07 7.07C2 8.36 2 8.74 2 12C2 15.26 2 15.64 2.07 16.93C2.08076 17.705 2.22277 18.4725 2.49 19.2C2.68983 19.7263 3.00013 20.2037 3.4 20.6C3.79819 21.0023 4.27939 21.3129 4.81 21.51C5.53257 21.7825 6.29776 21.9247 7.07 21.93C8.36 22 8.74 22 12 22C15.26 22 15.64 22 16.93 21.93C17.7022 21.9247 18.4674 21.7825 19.19 21.51C19.7206 21.3129 20.2018 21.0023 20.6 20.6C20.9999 20.2037 21.3102 19.7263 21.51 19.2C21.7823 18.4739 21.9244 17.7055 21.93 16.93C22 15.64 22 15.26 22 12C22 8.74 22 8.36 21.93 7.07ZM19.39 15.07C19.3579 15.6871 19.2262 16.295 19 16.87C18.8059 17.3497 18.5173 17.7854 18.1514 18.1514C17.7854 18.5173 17.3497 18.8059 16.87 19C16.2895 19.2136 15.6783 19.3318 15.06 19.35C14.27 19.35 14.06 19.35 12 19.35C9.94 19.35 9.73 19.35 8.94 19.35C8.32173 19.3318 7.71049 19.2136 7.13 19C6.6341 18.8157 6.18628 18.5217 5.82 18.14C5.45767 17.7813 5.17784 17.3479 5 16.87C4.78556 16.2901 4.67061 15.6782 4.66 15.06C4.66 14.27 4.66 14.06 4.66 12C4.66 9.94 4.66 9.73 4.66 8.94C4.67061 8.32183 4.78556 7.70988 5 7.13C5.18428 6.6341 5.47827 6.18628 5.86 5.82C6.22033 5.45962 6.65326 5.18009 7.13 5C7.71049 4.78641 8.32173 4.66821 8.94 4.65C9.73 4.65 9.94 4.65 12 4.65C14.06 4.65 14.27 4.65 15.06 4.65C15.6783 4.66821 16.2895 4.78641 16.87 5C17.3659 5.18428 17.8137 5.47827 18.18 5.86C18.5423 6.21875 18.8222 6.65213 19 7.13C19.2136 7.71049 19.3318 8.32173 19.35 8.94C19.35 9.73 19.35 9.94 19.35 12C19.35 14.06 19.42 14.27 19.39 15.06V15.07ZM17.79 7.63C17.6709 7.30698 17.4832 7.01364 17.2398 6.77021C16.9964 6.52678 16.703 6.33906 16.38 6.22C15.9365 6.06626 15.4693 5.99179 15 6C14.22 6 14 6 12 6C10 6 9.78 6 9 6C8.52827 6.00461 8.06107 6.09263 7.62 6.26C7.30193 6.37366 7.01169 6.55371 6.76858 6.7882C6.52547 7.02269 6.33506 7.30624 6.21 7.62C6.06478 8.06537 5.99383 8.5316 6 9C6 9.78 6 10 6 12C6 14 6 14.22 6 15C6.00991 15.4712 6.09777 15.9375 6.26 16.38C6.37906 16.703 6.56678 16.9964 6.81021 17.2398C7.05364 17.4832 7.34698 17.6709 7.67 17.79C8.09667 17.9469 8.54565 18.0347 9 18.05C9.78 18.05 10 18.05 12 18.05C14 18.05 14.22 18.05 15 18.05C15.4717 18.0454 15.9389 17.9574 16.38 17.79C16.703 17.6709 16.9964 17.4832 17.2398 17.2398C17.4832 16.9964 17.6709 16.703 17.79 16.38C17.9574 15.9389 18.0454 15.4717 18.05 15C18.05 14.22 18.05 14 18.05 12C18.05 10 18.05 9.78 18.05 9C18.0503 8.5278 17.9621 8.05972 17.79 7.62V7.63ZM12 15.82C11.4988 15.82 11.0026 15.7211 10.5397 15.529C10.0768 15.3369 9.6563 15.0554 9.30238 14.7005C8.94846 14.3457 8.66803 13.9245 8.47714 13.4611C8.28626 12.9977 8.18868 12.5012 8.19 12C8.19 11.2441 8.4143 10.5051 8.83449 9.87669C9.25468 9.24828 9.85187 8.75866 10.5505 8.46983C11.2491 8.181 12.0177 8.10594 12.7589 8.25415C13.5002 8.40236 14.1808 8.76717 14.7147 9.30241C15.2485 9.83764 15.6116 10.5192 15.7578 11.2609C15.9041 12.0026 15.827 12.771 15.5363 13.4688C15.2457 14.1666 14.7545 14.7625 14.125 15.1811C13.4955 15.5996 12.7559 15.822 12 15.82ZM16 8.93C15.7789 8.9066 15.5744 8.80222 15.4257 8.63697C15.277 8.47172 15.1947 8.25729 15.1947 8.035C15.1947 7.81271 15.277 7.59828 15.4257 7.43303C15.5744 7.26778 15.7789 7.1634 16 7.14C16.2211 7.1634 16.4256 7.26778 16.5743 7.43303C16.723 7.59828 16.8053 7.81271 16.8053 8.035C16.8053 8.25729 16.723 8.47172 16.5743 8.63697C16.4256 8.80222 16.2211 8.9066 16 8.93Z"/>
</symbol><symbol id="linkedin" viewBox="0 0 22 22">
<path d="M18.7645 1.83338H3.23617C3.06162 1.83096 2.8883 1.86294 2.72611 1.92751C2.56392 1.99207 2.41603 2.08796 2.2909 2.20968C2.16577 2.33141 2.06585 2.47659 1.99683 2.63694C1.92782 2.79729 1.89106 2.96966 1.88867 3.14421V18.8559C1.89106 19.0304 1.92782 19.2028 1.99683 19.3632C2.06585 19.5235 2.16577 19.6687 2.2909 19.7904C2.41603 19.9121 2.56392 20.008 2.72611 20.0726C2.8883 20.1372 3.06162 20.1691 3.23617 20.1667H18.7645C18.9391 20.1691 19.1124 20.1372 19.2746 20.0726C19.4368 20.008 19.5846 19.9121 19.7098 19.7904C19.8349 19.6687 19.9348 19.5235 20.0038 19.3632C20.0729 19.2028 20.1096 19.0304 20.112 18.8559V3.14421C20.1096 2.96966 20.0729 2.79729 20.0038 2.63694C19.9348 2.47659 19.8349 2.33141 19.7098 2.20968C19.5846 2.08796 19.4368 1.99207 19.2746 1.92751C19.1124 1.86294 18.9391 1.83096 18.7645 1.83338ZM7.41617 17.1784H4.66617V8.92838H7.41617V17.1784ZM6.04117 7.77338C5.66191 7.77338 5.29819 7.62272 5.03001 7.35454C4.76183 7.08637 4.61117 6.72264 4.61117 6.34338C4.61117 5.96412 4.76183 5.60039 5.03001 5.33222C5.29819 5.06404 5.66191 4.91338 6.04117 4.91338C6.24256 4.89054 6.4465 4.9105 6.63964 4.97194C6.83278 5.03338 7.01077 5.13493 7.16194 5.26993C7.31312 5.40493 7.43407 5.57034 7.51689 5.75532C7.5997 5.94031 7.64251 6.1407 7.64251 6.34338C7.64251 6.54606 7.5997 6.74645 7.51689 6.93144C7.43407 7.11643 7.31312 7.28183 7.16194 7.41683C7.01077 7.55183 6.83278 7.65338 6.63964 7.71482C6.4465 7.77626 6.24256 7.79622 6.04117 7.77338ZM17.3345 17.1784H14.5845V12.7509C14.5845 11.6417 14.1903 10.9175 13.1912 10.9175C12.8819 10.9198 12.5808 11.0168 12.3284 11.1955C12.076 11.3741 11.8844 11.6258 11.7795 11.9167C11.7078 12.1322 11.6767 12.3591 11.6878 12.5859V17.1692H8.93784C8.93784 17.1692 8.93784 9.67088 8.93784 8.91921H11.6878V10.0834C11.9377 9.64989 12.301 9.29277 12.7387 9.05048C13.1765 8.80819 13.672 8.68991 14.172 8.70838C16.0053 8.70838 17.3345 9.89088 17.3345 12.43V17.1784Z" fill="#FEFEFE"/>
</symbol><symbol id="logo" viewBox="0 0 189 33">
<path d="M37.3501 0C27.1321 0 22.255 6.12738 17.7655 12.956L17.7075 13.0427L17.7945 13.1005L19.5423 14.2403L19.6293 14.2981L19.6873 14.2114C24.77 6.48194 29.0908 2.29284 37.3475 2.29284H37.4529V2.18779V0.105055V0H37.3501V0Z" fill="#2CAD85"/>
<path d="M37.3503 24.8745C29.0936 24.8745 24.7728 20.6854 19.6901 12.9559L19.6532 12.8981H19.6506C18.6936 11.4431 17.5469 9.7543 16.2762 8.18109C16.1918 8.07603 16.1075 7.9736 16.0205 7.86854L15.9045 7.72672C12.7674 3.97885 9.50371 1.74379 5.63372 0.695857L5.23565 0.588175C4.86657 0.498877 4.57922 0.435844 4.30505 0.385942L4.18115 0.362305V0.488373V22.9047V23.0097H4.2866H5.98961C9.10828 23.0097 11.6206 23.1358 13.7481 23.7582C15.2164 24.1863 16.6637 24.9112 18.0504 25.9145L18.6646 26.3584L18.8834 26.516L18.8307 26.2533C18.2349 23.2934 15.8017 22.0406 14.4018 21.5573C11.9475 20.8403 9.14782 20.7274 6.48259 20.7142V3.35902C8.92111 4.28614 11.0723 5.83046 13.2445 8.20735L13.2867 8.25462L13.3131 8.28351C13.437 8.42009 13.5609 8.55929 13.6822 8.69849C13.8351 8.87445 13.988 9.05042 14.1382 9.23427C14.3649 9.50741 14.589 9.78056 14.7999 10.0485C14.8895 10.1588 14.9739 10.2691 15.0583 10.382C15.1479 10.4976 15.2323 10.6079 15.3166 10.7182L15.4563 10.9047C15.5565 11.036 15.6567 11.1725 15.7569 11.3117L15.8808 11.4798C15.9678 11.6007 16.0548 11.7215 16.1444 11.8475C16.3342 12.1128 16.5398 12.4043 16.7692 12.7379C16.7771 12.751 16.7903 12.7694 16.8035 12.7904L16.8166 12.8088C17.1936 13.3656 17.4862 13.8016 17.7578 14.2192L17.7894 14.2664H17.792C22.2736 21.0741 27.1507 27.1752 37.345 27.1752H37.4505V27.0701V24.9874V24.8823H37.3503V24.8745Z" fill="url(#paint0_linear_502_778)"/>
<path d="M28.0469 27.0624C27.0452 26.587 26.0671 26.0144 25.1339 25.3579L25.097 25.3316L25.0522 25.3421C24.7464 25.4078 24.4801 25.476 24.2376 25.547C21.6883 26.2928 19.7191 27.958 18.7278 28.935C17.7392 27.958 15.7673 26.2928 13.2181 25.547C11.3095 24.9902 8.94739 24.8746 5.98689 24.8746H2.30143V0.194353V0.0971764L2.20653 0.0892975C1.52111 0.0288904 0.814597 0 0.105449 0H0V0.105055V26.0302V27.065V27.1701H0.105449H5.98953C9.25583 27.1701 11.1618 27.3382 12.5722 27.7505C15.6302 28.6435 17.7366 31.2331 17.8236 31.3434L18.6461 32.3861L18.7278 32.4911L18.8095 32.3861L19.6321 31.3434C19.6531 31.3171 21.7911 28.6566 24.8834 27.7531C25.7112 27.5115 26.7051 27.3565 28.0074 27.2672L28.4081 27.241L28.0469 27.0624Z" fill="url(#paint1_linear_502_778)"/>
<path opacity="0.87" d="M29.8711 7.24609V19.9184" stroke="#2CAD85" stroke-width="3.3" stroke-miterlimit="10" stroke-linecap="round"/>
<path opacity="0.87" d="M34.7241 5.26367V21.9045" stroke="#2CAD85" stroke-width="3.3" stroke-miterlimit="10" stroke-linecap="round"/>
<path opacity="0.87" d="M25.0151 10.834V16.3337" stroke="#2CAD85" stroke-width="3.3" stroke-miterlimit="10" stroke-linecap="round"/>
<path d="M47.2256 14.1504C47.2256 8.53777 50.368 5.22852 54.9049 5.22852C59.4419 5.22852 62.5843 8.55353 62.5843 14.1504C62.5843 19.763 59.4419 23.2114 54.9049 23.2114C50.368 23.2114 47.2256 19.763 47.2256 14.1504ZM59.4103 14.1504C59.4103 10.2554 57.6413 7.90219 54.9049 7.90219C52.1685 7.90219 50.3996 10.2581 50.3996 14.1504C50.3996 18.0427 52.1685 20.5378 54.9049 20.5378C57.6413 20.5378 59.4103 18.0453 59.4103 14.1504Z" fill="#006493"/>
<path d="M84.3356 5.54688H87.0773C87.1722 5.54688 87.2513 5.62304 87.2513 5.72022V22.7209C87.2513 22.8154 87.1748 22.8942 87.0773 22.8942H84.3356C84.2407 22.8942 84.1616 22.8181 84.1616 22.7209V5.72022C84.1616 5.62304 84.2381 5.54688 84.3356 5.54688Z" fill="#006493"/>
<path d="M89.9644 14.2791C89.9644 8.60343 93.5312 5.22852 97.9416 5.22852C100.053 5.22852 101.748 6.20291 102.848 7.31125C102.911 7.37428 102.914 7.47671 102.856 7.545L101.424 9.26528C101.361 9.34408 101.245 9.3467 101.171 9.27842C100.306 8.45898 99.2993 7.90219 98.0049 7.90219C95.1736 7.90219 93.1384 10.2896 93.1384 14.1819C93.1384 18.1399 95.0127 20.5378 97.9311 20.5378C99.4073 20.5378 100.562 19.8891 101.516 18.8963C101.588 18.8227 101.706 18.8227 101.775 18.9015L103.201 20.5719C103.256 20.6376 103.256 20.7374 103.198 20.803C101.801 22.3631 100.019 23.2141 97.8151 23.2141C93.4363 23.2114 89.9644 20.0177 89.9644 14.2791Z" fill="#006493"/>
<path d="M104.432 20.5427L106.009 18.6937C106.072 18.6202 106.183 18.6123 106.256 18.678C107.488 19.7942 109.098 20.5348 110.662 20.5348C112.62 20.5348 113.696 19.6497 113.696 18.2972C113.696 16.871 112.573 16.414 110.991 15.7443L108.611 14.7148C106.897 14.003 105.091 12.6504 105.091 10.1159C105.091 7.35296 107.54 5.22559 110.938 5.22559C112.916 5.22559 114.835 6.01876 116.192 7.3267C116.258 7.38974 116.264 7.49216 116.206 7.56308L114.829 9.2571C114.769 9.33064 114.658 9.34115 114.584 9.28074C113.517 8.4114 112.37 7.90188 110.938 7.90188C109.288 7.90188 108.213 8.67142 108.213 9.93997C108.213 11.3031 109.539 11.8073 110.981 12.3956L113.329 13.3779C115.402 14.2367 116.849 15.5421 116.849 18.0555C116.849 20.8684 114.505 23.2111 110.598 23.2111C108.302 23.2111 106.085 22.3313 104.445 20.7844C104.377 20.7213 104.374 20.6136 104.432 20.5427Z" fill="#006493"/>
<path d="M118.705 14.119C118.705 8.5747 121.739 5.09473 126.202 5.09473C128.179 5.09473 129.716 6.0376 130.663 7.06978C130.723 7.13544 130.721 7.23524 130.663 7.3009L130.172 7.85769C130.104 7.93386 129.985 7.93386 129.916 7.86032C128.983 6.86229 127.744 6.20569 126.213 6.20569C122.369 6.20569 119.988 9.25494 119.988 14.1033C119.988 18.9621 122.343 22.1033 126.112 22.1033C127.863 22.1033 129.186 21.4151 130.42 20.0888C130.489 20.0153 130.605 20.0127 130.673 20.0862L131.156 20.5983C131.216 20.664 131.219 20.7664 131.158 20.8347C129.837 22.3186 128.271 23.2142 126.046 23.2142C121.723 23.2116 118.705 19.6738 118.705 14.119Z" fill="#858585"/>
<path d="M133.858 5.41211H134.735C134.83 5.41211 134.909 5.4909 134.909 5.58545V13.0733H144.292V5.58545C144.292 5.4909 144.371 5.41211 144.466 5.41211H145.341C145.436 5.41211 145.515 5.4909 145.515 5.58545V22.7174C145.515 22.812 145.436 22.8908 145.341 22.8908H144.466C144.371 22.8908 144.292 22.812 144.292 22.7174V14.1396H134.909V22.7201C134.909 22.8146 134.83 22.8934 134.735 22.8934H133.858C133.763 22.8934 133.684 22.8146 133.684 22.7201V5.58545C133.684 5.4909 133.763 5.41211 133.858 5.41211Z" fill="#858585"/>
<path d="M154.102 5.41211H155.08C155.153 5.41211 155.219 5.45938 155.243 5.52767L161.301 22.6596C161.341 22.7726 161.256 22.8908 161.138 22.8908H160.21C160.136 22.8908 160.07 22.8435 160.046 22.7726L156.582 12.5979C155.868 10.5231 155.251 8.68985 154.634 6.56247H154.529C153.917 8.6951 153.297 10.5257 152.586 12.5979L149.074 22.7726C149.05 22.8435 148.985 22.8908 148.911 22.8908H148.046C147.925 22.8908 147.843 22.7726 147.883 22.6596L153.938 5.5303C153.962 5.45938 154.028 5.41211 154.102 5.41211ZM150.619 15.8704H158.486V16.8921H150.619V15.8704Z" fill="#858585"/>
<path d="M163.671 5.58545C163.671 5.4909 163.75 5.41211 163.845 5.41211H168.685C172.173 5.41211 174.456 6.68591 174.456 10.0267C174.456 13.2125 172.173 14.8645 168.685 14.8645H164.894V22.7174C164.894 22.812 164.815 22.8908 164.72 22.8908H163.845C163.75 22.8908 163.671 22.812 163.671 22.7174V5.58545ZM168.369 13.8376C171.474 13.8376 173.198 12.6111 173.198 10.0293C173.198 7.39767 171.474 6.44428 168.369 6.44428H164.897V13.8402H168.369V13.8376ZM168.413 14.5073L169.584 14.158L174.638 22.6308C174.706 22.7463 174.622 22.8934 174.487 22.8934H173.472C173.412 22.8934 173.354 22.8619 173.322 22.8094L168.413 14.5073Z" fill="#858585"/>
<path d="M181.278 6.46267H175.866C175.771 6.46267 175.692 6.38387 175.692 6.28932V5.58545C175.692 5.4909 175.771 5.41211 175.866 5.41211H187.913C188.008 5.41211 188.087 5.4909 188.087 5.58545V6.28932C188.087 6.38387 188.008 6.46267 187.913 6.46267H182.501V22.7174C182.501 22.812 182.422 22.8908 182.327 22.8908H181.452C181.357 22.8908 181.278 22.812 181.278 22.7174V6.46267V6.46267Z" fill="#858585"/>
<path d="M78.7182 5.54688H77.0257C76.9492 5.54688 76.8833 5.59678 76.8596 5.66769L73.0212 17.933L69.1829 5.66769C69.1592 5.59415 69.0933 5.54688 69.0168 5.54688H67.3243H65.4948C65.3999 5.54688 65.3208 5.62567 65.3208 5.72022V22.7209C65.3208 22.8154 65.3999 22.8942 65.4948 22.8942H66.3885H67.928C68.0229 22.8942 68.102 22.8154 68.102 22.7209V14.9599V10.7681L71.8587 22.7708C71.8824 22.8443 71.9483 22.8916 72.0247 22.8916H73.0239H74.023C74.0995 22.8916 74.1654 22.8417 74.1891 22.7708L77.9457 10.7681V14.9572V22.7182C77.9457 22.8128 78.0248 22.8916 78.1197 22.8916H79.6593H80.553C80.6479 22.8916 80.727 22.8128 80.727 22.7182V5.72022C80.727 5.62567 80.6479 5.54688 80.553 5.54688H78.7182Z" fill="#006493"/>

</symbol><symbol id="mail" viewBox="0 0 24 24">
<path d="M19 4H5C4.20435 4 3.44129 4.31607 2.87868 4.87868C2.31607 5.44129 2 6.20435 2 7V17C2 17.7956 2.31607 18.5587 2.87868 19.1213C3.44129 19.6839 4.20435 20 5 20H19C19.7956 20 20.5587 19.6839 21.1213 19.1213C21.6839 18.5587 22 17.7956 22 17V7C22 6.20435 21.6839 5.44129 21.1213 4.87868C20.5587 4.31607 19.7956 4 19 4ZM5 6H19C19.2652 6 19.5196 6.10536 19.7071 6.29289C19.8946 6.48043 20 6.73478 20 7L12 11.88L4 7C4 6.73478 4.10536 6.48043 4.29289 6.29289C4.48043 6.10536 4.73478 6 5 6ZM20 17C20 17.2652 19.8946 17.5196 19.7071 17.7071C19.5196 17.8946 19.2652 18 19 18H5C4.73478 18 4.48043 17.8946 4.29289 17.7071C4.10536 17.5196 4 17.2652 4 17V9.28L11.48 13.85C11.632 13.9378 11.8045 13.984 11.98 13.984C12.1555 13.984 12.328 13.9378 12.48 13.85L20 9.28V17Z"/>
</symbol><symbol id="modal-icon" viewBox="0 0 104 91">
<path d="M51.9998 32C64.4661 13.0384 75.3412 0 103.714 0H104V0.291715V6.07501V6.36673H103.707C80.7801 6.36673 70.1132 16.5369 55.9998 38L52.9998 33.5L51.9998 32Z" fill="#2CAD85" fill-opacity="0.14"/>
<path d="M103.712 69.0713C80.7852 69.0713 68.7873 57.439 54.6738 35.9759L54.5714 35.8155H54.564C51.9068 31.7752 48.7225 27.0859 45.1941 22.7174C44.9599 22.4257 44.7256 22.1413 44.484 21.8495L44.162 21.4557C35.4508 11.0487 26.3884 4.84243 15.6422 1.93255L14.5369 1.63354C13.512 1.38558 12.7141 1.21055 11.9528 1.07198L11.6088 1.00635V1.35641V63.6016V63.8933H11.9016H16.6305C25.2903 63.8933 32.2665 64.2433 38.174 65.9718C42.2514 67.1605 46.2702 69.1734 50.1206 71.9593L51.8263 73.1918L52.4338 73.6293L52.2874 72.9C50.6331 64.6809 43.8765 61.2022 39.9894 59.8603C33.1742 57.8693 25.4001 57.5557 17.9993 57.5193V9.32758C24.7706 11.902 30.7439 16.1902 36.7758 22.7903L36.8929 22.9216L36.9661 23.0018C37.3102 23.3811 37.6542 23.7676 37.991 24.1541C38.4156 24.6427 38.8401 25.1314 39.2574 25.6419C39.8869 26.4003 40.5091 27.1588 41.0948 27.9027C41.3437 28.209 41.5779 28.5153 41.8121 28.8289C42.061 29.1498 42.2953 29.4561 42.5295 29.7624L42.9175 30.2802C43.1957 30.6448 43.4738 31.024 43.752 31.4106L44.0961 31.8773C44.3376 32.2128 44.5792 32.5483 44.8281 32.8983C45.3552 33.6349 45.9261 34.4444 46.563 35.3706C46.585 35.4071 46.6216 35.4581 46.6582 35.5165L46.6948 35.5675C47.7416 37.1136 48.5541 38.3243 49.3081 39.4838L49.3959 39.6151H49.4033C61.8477 58.5184 75.3902 75.4599 103.698 75.4599H103.99V75.1681V69.3848V69.0931H103.712V69.0713Z" fill="url(#paint0_linear_417_1244)" fill-opacity="0.14"/>
<path d="M77.8802 75.1464C75.0985 73.8263 72.3827 72.2365 69.7913 70.4132L69.6889 70.3403L69.5644 70.3695C68.7153 70.5518 67.9759 70.7414 67.3025 70.9383C60.2238 73.0095 54.7555 77.6333 52.0031 80.3462C49.258 77.6333 43.7825 73.0095 36.7038 70.9383C31.4039 69.3922 24.845 69.0714 16.6243 69.0714H6.39058V0.539675V0.269838L6.12705 0.24796C4.22379 0.0802224 2.26196 0 0.292809 0H0V0.291716V72.2802V75.1536V75.4454H0.292809H16.6316C25.7014 75.4454 30.994 75.9121 34.9103 77.0571C43.4018 79.5367 49.2507 86.7275 49.4923 87.0338L51.7762 89.9291L52.0031 90.2208L52.23 89.9291L54.514 87.0338C54.5725 86.9609 60.5092 79.5732 69.0959 77.0644C71.3945 76.3935 74.1542 75.9632 77.7704 75.7152L78.8831 75.6423L77.8802 75.1464Z" fill="url(#paint1_linear_417_1244)" fill-opacity="0.14"/>
<path opacity="0.87" d="M82.9456 20.1211V55.3095" stroke="#2CAD85" stroke-opacity="0.14" stroke-width="3.3" stroke-miterlimit="10" stroke-linecap="round"/>
<path opacity="0.87" d="M96.4229 14.615V60.823" stroke="#2CAD85" stroke-opacity="0.14" stroke-width="3.3" stroke-miterlimit="10" stroke-linecap="round"/>
<path opacity="0.87" d="M69.4631 30.0833V45.3546" stroke="#2CAD85" stroke-opacity="0.14" stroke-width="3.3" stroke-miterlimit="10" stroke-linecap="round"/>

</symbol><symbol id="phone" viewBox="0 0 24 24">
<path d="M19.4401 13.0001C19.2201 13.0001 18.9901 12.9301 18.7701 12.8801C18.3246 12.7819 17.8868 12.6516 17.4601 12.4901C16.9962 12.3213 16.4862 12.3301 16.0284 12.5147C15.5706 12.6993 15.1972 13.0467 14.9801 13.4901L14.7601 13.9401C13.7861 13.3983 12.8911 12.7253 12.1001 11.9401C11.3149 11.1491 10.6419 10.2541 10.1001 9.28011L10.5201 9.00011C10.9635 8.78303 11.3109 8.40964 11.4955 7.9518C11.6801 7.49396 11.6889 6.98402 11.5201 6.52011C11.3613 6.09253 11.231 5.65491 11.1301 5.21011C11.0801 4.99011 11.0401 4.76011 11.0101 4.53011C10.8887 3.82573 10.5197 3.18785 9.96972 2.73135C9.41972 2.27485 8.7248 2.02972 8.0101 2.04011H5.0101C4.57913 2.03607 4.15235 2.12493 3.75881 2.30064C3.36527 2.47636 3.01421 2.73481 2.72953 3.05839C2.44485 3.38198 2.23324 3.76311 2.10909 4.17583C1.98494 4.58855 1.95118 5.02317 2.0101 5.45011C2.54284 9.63949 4.45613 13.532 7.44775 16.5127C10.4394 19.4935 14.3388 21.3926 18.5301 21.9101H18.9101C19.6475 21.9112 20.3595 21.6406 20.9101 21.1501C21.2265 20.8672 21.4792 20.5203 21.6516 20.1324C21.8239 19.7446 21.9121 19.3245 21.9101 18.9001V15.9001C21.8979 15.2055 21.6449 14.5367 21.1944 14.0078C20.744 13.4789 20.1239 13.1227 19.4401 13.0001ZM19.9401 19.0001C19.9399 19.1421 19.9095 19.2824 19.8509 19.4117C19.7923 19.5411 19.7068 19.6564 19.6001 19.7501C19.4884 19.8466 19.3577 19.9187 19.2165 19.9617C19.0753 20.0048 18.9267 20.0178 18.7801 20.0001C15.035 19.5199 11.5563 17.8066 8.89282 15.1304C6.2293 12.4542 4.53251 8.96745 4.0701 5.22011C4.05419 5.07363 4.06813 4.92544 4.1111 4.7845C4.15407 4.64356 4.22517 4.5128 4.3201 4.40011C4.41381 4.29344 4.52916 4.20795 4.65848 4.14933C4.7878 4.09071 4.92812 4.06029 5.0701 4.06011H8.0701C8.30265 4.05494 8.52972 4.13099 8.71224 4.27518C8.89476 4.41937 9.02131 4.62268 9.0701 4.85011C9.1101 5.12345 9.1601 5.39345 9.2201 5.66011C9.33562 6.18726 9.48936 6.70529 9.6801 7.21011L8.2801 7.86011C8.1604 7.91503 8.05272 7.99306 7.96326 8.08971C7.87379 8.18636 7.8043 8.29973 7.75877 8.42331C7.71324 8.54689 7.69257 8.67824 7.69795 8.80983C7.70332 8.94142 7.73464 9.07066 7.7901 9.19011C9.2293 12.2729 11.7073 14.7509 14.7901 16.1901C15.0336 16.2901 15.3066 16.2901 15.5501 16.1901C15.6748 16.1455 15.7894 16.0766 15.8873 15.9873C15.9851 15.898 16.0643 15.7902 16.1201 15.6701L16.7401 14.2701C17.2571 14.455 17.7847 14.6086 18.3201 14.7301C18.5868 14.7901 18.8568 14.8401 19.1301 14.8801C19.3575 14.9289 19.5608 15.0554 19.705 15.238C19.8492 15.4205 19.9253 15.6476 19.9201 15.8801L19.9401 19.0001Z"/>
</symbol><symbol id="server" viewBox="0 0 50 50">
<path d="M31.2497 35.4167C30.8376 35.4167 30.4348 35.5389 30.0922 35.7678C29.7496 35.9967 29.4826 36.3221 29.3249 36.7028C29.1672 37.0834 29.126 37.5023 29.2064 37.9064C29.2868 38.3106 29.4852 38.6818 29.7765 38.9731C30.0679 39.2645 30.4391 39.4629 30.8432 39.5433C31.2474 39.6237 31.6663 39.5824 32.0469 39.4248C32.4276 39.2671 32.753 39 32.9819 38.6574C33.2108 38.3148 33.333 37.9121 33.333 37.5C33.333 36.9475 33.1135 36.4176 32.7228 36.0269C32.3321 35.6362 31.8022 35.4167 31.2497 35.4167ZM22.9163 35.4167H18.7497C18.1971 35.4167 17.6672 35.6362 17.2765 36.0269C16.8858 36.4176 16.6663 36.9475 16.6663 37.5C16.6663 38.0525 16.8858 38.5824 17.2765 38.9731C17.6672 39.3638 18.1971 39.5833 18.7497 39.5833H22.9163C23.4689 39.5833 23.9988 39.3638 24.3895 38.9731C24.7802 38.5824 24.9997 38.0525 24.9997 37.5C24.9997 36.9475 24.7802 36.4176 24.3895 36.0269C23.9988 35.6362 23.4689 35.4167 22.9163 35.4167ZM22.9163 22.9167H18.7497C18.1971 22.9167 17.6672 23.1362 17.2765 23.5269C16.8858 23.9176 16.6663 24.4475 16.6663 25C16.6663 25.5525 16.8858 26.0824 17.2765 26.4731C17.6672 26.8638 18.1971 27.0833 18.7497 27.0833H22.9163C23.4689 27.0833 23.9988 26.8638 24.3895 26.4731C24.7802 26.0824 24.9997 25.5525 24.9997 25C24.9997 24.4475 24.7802 23.9176 24.3895 23.5269C23.9988 23.1362 23.4689 22.9167 22.9163 22.9167ZM31.2497 22.9167C30.8376 22.9167 30.4348 23.0389 30.0922 23.2678C29.7496 23.4967 29.4826 23.8221 29.3249 24.2027C29.1672 24.5834 29.126 25.0023 29.2064 25.4064C29.2868 25.8106 29.4852 26.1818 29.7765 26.4731C30.0679 26.7645 30.4391 26.9629 30.8432 27.0433C31.2474 27.1237 31.6663 27.0824 32.0469 26.9248C32.4276 26.7671 32.753 26.5 32.9819 26.1574C33.2108 25.8148 33.333 25.4121 33.333 25C33.333 24.4475 33.1135 23.9176 32.7228 23.5269C32.3321 23.1362 31.8022 22.9167 31.2497 22.9167ZM47.9163 16.6667C47.9163 15.0091 47.2579 13.4194 46.0858 12.2473C44.9137 11.0752 43.3239 10.4167 41.6663 10.4167H39.583C39.583 8.75907 38.9245 7.16936 37.7524 5.99725C36.5803 4.82515 34.9906 4.16667 33.333 4.16667H16.6663C15.0087 4.16667 13.419 4.82515 12.2469 5.99725C11.0748 7.16936 10.4163 8.75907 10.4163 10.4167H8.33301C6.6754 10.4167 5.08569 11.0752 3.91359 12.2473C2.74149 13.4194 2.08301 15.0091 2.08301 16.6667V20.8333C2.0922 22.3751 2.67095 23.8591 3.70801 25C2.67095 26.1409 2.0922 27.6249 2.08301 29.1667V33.3333C2.08301 34.9909 2.74149 36.5807 3.91359 37.7528C5.08569 38.9249 6.6754 39.5833 8.33301 39.5833H10.4163C10.4163 41.2409 11.0748 42.8307 12.2469 44.0028C13.419 45.1749 15.0087 45.8333 16.6663 45.8333H33.333C34.9906 45.8333 36.5803 45.1749 37.7524 44.0028C38.9245 42.8307 39.583 41.2409 39.583 39.5833H41.6663C43.3239 39.5833 44.9137 38.9249 46.0858 37.7528C47.2579 36.5807 47.9163 34.9909 47.9163 33.3333V29.1667C47.9072 27.6249 47.3284 26.1409 46.2913 25C47.3284 23.8591 47.9072 22.3751 47.9163 20.8333V16.6667ZM10.4163 35.4167H8.33301C7.78047 35.4167 7.25057 35.1972 6.85987 34.8065C6.46917 34.4158 6.24967 33.8859 6.24967 33.3333V29.1667C6.24967 28.6141 6.46917 28.0842 6.85987 27.6935C7.25057 27.3028 7.78047 27.0833 8.33301 27.0833H10.4163C10.4255 28.6251 11.0043 30.1091 12.0413 31.25C11.0043 32.3909 10.4255 33.8749 10.4163 35.4167ZM10.4163 22.9167H8.33301C7.78047 22.9167 7.25057 22.6972 6.85987 22.3065C6.46917 21.9158 6.24967 21.3859 6.24967 20.8333V16.6667C6.24967 16.1141 6.46917 15.5842 6.85987 15.1935C7.25057 14.8028 7.78047 14.5833 8.33301 14.5833H10.4163C10.4255 16.1251 11.0043 17.6091 12.0413 18.75C11.0043 19.8909 10.4255 21.3749 10.4163 22.9167ZM35.4163 39.5833C35.4163 40.1359 35.1968 40.6658 34.8061 41.0565C34.4154 41.4472 33.8855 41.6667 33.333 41.6667H16.6663C16.1138 41.6667 15.5839 41.4472 15.1932 41.0565C14.8025 40.6658 14.583 40.1359 14.583 39.5833V35.4167C14.583 34.8641 14.8025 34.3342 15.1932 33.9435C15.5839 33.5528 16.1138 33.3333 16.6663 33.3333H33.333C33.8855 33.3333 34.4154 33.5528 34.8061 33.9435C35.1968 34.3342 35.4163 34.8641 35.4163 35.4167V39.5833ZM35.4163 27.0833C35.4163 27.6359 35.1968 28.1658 34.8061 28.5565C34.4154 28.9472 33.8855 29.1667 33.333 29.1667H16.6663C16.1138 29.1667 15.5839 28.9472 15.1932 28.5565C14.8025 28.1658 14.583 27.6359 14.583 27.0833V22.9167C14.583 22.3641 14.8025 21.8342 15.1932 21.4435C15.5839 21.0528 16.1138 20.8333 16.6663 20.8333H33.333C33.8855 20.8333 34.4154 21.0528 34.8061 21.4435C35.1968 21.8342 35.4163 22.3641 35.4163 22.9167V27.0833ZM35.4163 14.5833C35.4163 15.1359 35.1968 15.6658 34.8061 16.0565C34.4154 16.4472 33.8855 16.6667 33.333 16.6667H16.6663C16.1138 16.6667 15.5839 16.4472 15.1932 16.0565C14.8025 15.6658 14.583 15.1359 14.583 14.5833V10.4167C14.583 9.86414 14.8025 9.33423 15.1932 8.94353C15.5839 8.55283 16.1138 8.33334 16.6663 8.33334H33.333C33.8855 8.33334 34.4154 8.55283 34.8061 8.94353C35.1968 9.33423 35.4163 9.86414 35.4163 10.4167V14.5833ZM43.7497 33.3333C43.7497 33.8859 43.5302 34.4158 43.1395 34.8065C42.7488 35.1972 42.2189 35.4167 41.6663 35.4167H39.583C39.5738 33.8749 38.9951 32.3909 37.958 31.25C38.9951 30.1091 39.5738 28.6251 39.583 27.0833H41.6663C42.2189 27.0833 42.7488 27.3028 43.1395 27.6935C43.5302 28.0842 43.7497 28.6141 43.7497 29.1667V33.3333ZM43.7497 20.8333C43.7497 21.3859 43.5302 21.9158 43.1395 22.3065C42.7488 22.6972 42.2189 22.9167 41.6663 22.9167H39.583C39.5738 21.3749 38.9951 19.8909 37.958 18.75C38.9951 17.6091 39.5738 16.1251 39.583 14.5833H41.6663C42.2189 14.5833 42.7488 14.8028 43.1395 15.1935C43.5302 15.5842 43.7497 16.1141 43.7497 16.6667V20.8333ZM31.2497 10.4167C30.8376 10.4167 30.4348 10.5389 30.0922 10.7678C29.7496 10.9967 29.4826 11.3221 29.3249 11.7027C29.1672 12.0834 29.126 12.5023 29.2064 12.9064C29.2868 13.3106 29.4852 13.6818 29.7765 13.9731C30.0679 14.2645 30.4391 14.4629 30.8432 14.5433C31.2474 14.6237 31.6663 14.5824 32.0469 14.4248C32.4276 14.2671 32.753 14 32.9819 13.6574C33.2108 13.3148 33.333 12.9121 33.333 12.5C33.333 11.9475 33.1135 11.4176 32.7228 11.0269C32.3321 10.6362 31.8022 10.4167 31.2497 10.4167ZM22.9163 10.4167H18.7497C18.1971 10.4167 17.6672 10.6362 17.2765 11.0269C16.8858 11.4176 16.6663 11.9475 16.6663 12.5C16.6663 13.0525 16.8858 13.5824 17.2765 13.9731C17.6672 14.3638 18.1971 14.5833 18.7497 14.5833H22.9163C23.4689 14.5833 23.9988 14.3638 24.3895 13.9731C24.7802 13.5824 24.9997 13.0525 24.9997 12.5C24.9997 11.9475 24.7802 11.4176 24.3895 11.0269C23.9988 10.6362 23.4689 10.4167 22.9163 10.4167Z" fill="url(#paint0_linear_431_2399)"/>

</symbol><symbol id="telegram" viewBox="0 0 24 24">
<path d="M11.9944 2C10.0166 2 8.08318 2.58649 6.43869 3.6853C4.7942 4.78412 3.51247 6.3459 2.75559 8.17317C1.99872 10.0004 1.80068 12.0111 2.18654 13.9509C2.57239 15.8907 3.5248 17.6725 4.92332 19.0711C6.32185 20.4696 8.10368 21.422 10.0435 21.8079C11.9833 22.1937 13.994 21.9957 15.8212 21.2388C17.6485 20.4819 19.2103 19.2002 20.3091 17.5557C21.4079 15.9112 21.9944 13.9778 21.9944 12C21.9945 10.6868 21.7359 9.38634 21.2334 8.17304C20.7309 6.95973 19.9943 5.8573 19.0657 4.92869C18.1371 4.00008 17.0347 3.26349 15.8214 2.76098C14.608 2.25847 13.3076 1.99989 11.9944 2ZM15.1739 17.1525C15.1365 17.2458 15.0795 17.33 15.0069 17.3996C14.9342 17.4691 14.8475 17.5223 14.7527 17.5556C14.6578 17.5889 14.5569 17.6015 14.4567 17.5926C14.3565 17.5837 14.2594 17.5535 14.1719 17.504L11.4572 15.3946L9.71491 17.002C9.67448 17.0319 9.62719 17.0511 9.57739 17.0579C9.52758 17.0647 9.47687 17.0589 9.42991 17.0409L9.76391 14.0525L9.7746 14.061L9.78143 14.002C9.78143 14.002 14.6664 9.55445 14.8654 9.36496C15.0669 9.17596 15.0004 9.13496 15.0004 9.13496C15.0119 8.90443 14.6389 9.13496 14.6389 9.13496L8.16639 13.299L5.4709 12.381C5.4709 12.381 5.0569 12.2325 5.0179 11.906C4.9769 11.582 5.48439 11.406 5.48439 11.406L16.2014 7.14849C16.2014 7.14849 17.0824 6.75597 17.0824 7.406L15.1739 17.1525Z"/>
</symbol><symbol id="twitter-light" viewBox="0 0 22 22">
<path d="M20.1663 5.31661C19.4773 5.61554 18.7486 5.81314 18.003 5.90328C18.7897 5.43333 19.3792 4.694 19.6622 3.82245C18.9229 4.26251 18.1137 4.57255 17.2697 4.73911C16.7055 4.12731 15.9542 3.72005 15.1337 3.58123C14.3131 3.4424 13.4697 3.57986 12.7356 3.97204C12.0016 4.36422 11.4185 4.98893 11.0778 5.74821C10.7371 6.50749 10.658 7.35839 10.853 8.16745C9.35832 8.09185 7.89625 7.70266 6.56177 7.02515C5.2273 6.34765 4.05028 5.397 3.10717 4.23495C2.77638 4.8126 2.60257 5.46679 2.60301 6.13245C2.60183 6.75063 2.75354 7.35951 3.04462 7.90488C3.33569 8.45025 3.75711 8.91518 4.27134 9.25828C3.67365 9.24202 3.08874 9.08164 2.56634 8.79078V8.83662C2.57082 9.70276 2.87434 10.5408 3.42555 11.2089C3.97676 11.8771 4.74183 12.3343 5.59134 12.5033C5.26433 12.6028 4.92481 12.6553 4.58301 12.6591C4.34641 12.6564 4.11039 12.6349 3.87717 12.5949C4.11909 13.34 4.58725 13.9912 5.21649 14.4578C5.84574 14.9244 6.60479 15.1832 7.38801 15.1983C6.06544 16.2389 4.43257 16.8069 2.74967 16.8116C2.44327 16.8126 2.1371 16.7943 1.83301 16.7566C3.55123 17.866 5.55359 18.4549 7.59884 18.4524C9.01023 18.4671 10.4104 18.2004 11.7175 17.6679C13.0247 17.1353 14.2126 16.3477 15.2119 15.3509C16.2113 14.3541 17.002 13.1682 17.5379 11.8624C18.0737 10.5567 18.344 9.1572 18.333 7.74578C18.333 7.58995 18.333 7.42495 18.333 7.25995C19.0523 6.72352 19.6727 6.06592 20.1663 5.31661Z" fill="#FEFEFE"/>
</symbol><symbol id="twitter" viewBox="0 0 24 24">
<path d="M22 5.80003C21.2483 6.12612 20.4534 6.34169 19.64 6.44003C20.4982 5.92735 21.1413 5.12081 21.45 4.17003C20.6436 4.65009 19.7608 4.98832 18.84 5.17003C18.2245 4.5026 17.405 4.05832 16.5098 3.90688C15.6147 3.75543 14.6945 3.90538 13.8938 4.33322C13.093 4.76105 12.4569 5.44256 12.0852 6.27086C11.7135 7.09917 11.6273 8.02742 11.84 8.91003C10.2094 8.82755 8.61444 8.40298 7.15865 7.66389C5.70287 6.9248 4.41885 5.88772 3.39 4.62003C3.02914 5.25019 2.83952 5.96385 2.84 6.69003C2.83872 7.36441 3.00422 8.02864 3.32176 8.62359C3.63929 9.21854 4.09902 9.72574 4.66 10.1C4.00798 10.0823 3.36989 9.90733 2.8 9.59003V9.64003C2.80489 10.5849 3.13599 11.4991 3.73731 12.228C4.33864 12.9569 5.17326 13.4557 6.1 13.64C5.74326 13.7486 5.37287 13.8058 5 13.81C4.74189 13.807 4.48442 13.7836 4.23 13.74C4.49391 14.5528 5.00462 15.2632 5.69107 15.7722C6.37753 16.2812 7.20558 16.5636 8.06 16.58C6.6172 17.7153 4.83588 18.3349 3 18.34C2.66574 18.3411 2.33174 18.3211 2 18.28C3.87443 19.4903 6.05881 20.1327 8.29 20.13C9.82969 20.146 11.3571 19.855 12.7831 19.2741C14.2091 18.6932 15.505 17.8339 16.5952 16.7465C17.6854 15.6591 18.548 14.3654 19.1326 12.9409C19.7172 11.5164 20.012 9.98975 20 8.45003C20 8.28003 20 8.10003 20 7.92003C20.7847 7.33484 21.4615 6.61745 22 5.80003Z"/>
</symbol><symbol id="users" viewBox="0 0 50 50">
<rect width="50" height="50" fill="white"/>
<path d="M25.6247 25.4583C26.7363 24.4961 27.6279 23.306 28.239 21.9688C28.8501 20.6316 29.1664 19.1786 29.1663 17.7083C29.1663 14.9457 28.0689 12.2961 26.1154 10.3426C24.1619 8.38914 21.5123 7.29167 18.7497 7.29167C15.987 7.29167 13.3375 8.38914 11.384 10.3426C9.43048 12.2961 8.33301 14.9457 8.33301 17.7083C8.33299 19.1786 8.64926 20.6316 9.26035 21.9688C9.87144 23.306 10.7631 24.4961 11.8747 25.4583C8.9583 26.7789 6.48398 28.9115 4.74755 31.6011C3.01112 34.2908 2.08607 37.4236 2.08301 40.625C2.08301 41.1775 2.3025 41.7074 2.6932 42.0981C3.0839 42.4888 3.61381 42.7083 4.16634 42.7083C4.71888 42.7083 5.24878 42.4888 5.63948 42.0981C6.03018 41.7074 6.24967 41.1775 6.24967 40.625C6.24967 37.3098 7.56664 34.1304 9.91084 31.7862C12.255 29.442 15.4345 28.125 18.7497 28.125C22.0649 28.125 25.2443 29.442 27.5885 31.7862C29.9327 34.1304 31.2497 37.3098 31.2497 40.625C31.2497 41.1775 31.4692 41.7074 31.8599 42.0981C32.2506 42.4888 32.7805 42.7083 33.333 42.7083C33.8855 42.7083 34.4155 42.4888 34.8062 42.0981C35.1969 41.7074 35.4163 41.1775 35.4163 40.625C35.4133 37.4236 34.4882 34.2908 32.7518 31.6011C31.0154 28.9115 28.5411 26.7789 25.6247 25.4583ZM18.7497 23.9583C17.5135 23.9583 16.3052 23.5918 15.2774 22.905C14.2496 22.2183 13.4485 21.2421 12.9754 20.1001C12.5024 18.9581 12.3786 17.7014 12.6198 16.489C12.8609 15.2766 13.4562 14.163 14.3303 13.2889C15.2043 12.4148 16.318 11.8196 17.5304 11.5784C18.7427 11.3373 19.9994 11.461 21.1414 11.9341C22.2835 12.4071 23.2596 13.2082 23.9464 14.236C24.6331 15.2638 24.9997 16.4722 24.9997 17.7083C24.9997 19.3659 24.3412 20.9557 23.1691 22.1278C21.997 23.2999 20.4073 23.9583 18.7497 23.9583ZM39.0413 24.625C40.3746 23.1236 41.2455 21.2689 41.5493 19.284C41.853 17.2992 41.5766 15.2689 40.7534 13.4375C39.9301 11.6061 38.5951 10.0517 36.909 8.9613C35.2229 7.87094 33.2576 7.29114 31.2497 7.29167C30.6971 7.29167 30.1672 7.51117 29.7765 7.90187C29.3858 8.29257 29.1663 8.82247 29.1663 9.37501C29.1663 9.92754 29.3858 10.4574 29.7765 10.8481C30.1672 11.2388 30.6971 11.4583 31.2497 11.4583C32.9073 11.4583 34.497 12.1168 35.6691 13.2889C36.8412 14.461 37.4997 16.0507 37.4997 17.7083C37.4967 18.8026 37.2065 19.8769 36.6581 20.8238C36.1097 21.7707 35.3223 22.557 34.3747 23.1042C34.0658 23.2823 33.8078 23.5368 33.6254 23.8432C33.443 24.1496 33.3424 24.4977 33.333 24.8542C33.3243 25.2078 33.4058 25.5579 33.5698 25.8714C33.7338 26.1848 33.975 26.4514 34.2705 26.6458L35.083 27.1875L35.3538 27.3333C37.8651 28.5244 39.9837 30.4083 41.46 32.7632C42.9364 35.118 43.7091 37.8457 43.6872 40.625C43.6872 41.1775 43.9067 41.7074 44.2974 42.0981C44.6881 42.4888 45.218 42.7083 45.7705 42.7083C46.323 42.7083 46.853 42.4888 47.2437 42.0981C47.6343 41.7074 47.8538 41.1775 47.8538 40.625C47.8709 37.428 47.0701 34.2797 45.5277 31.4793C43.9853 28.6789 41.7525 26.3194 39.0413 24.625Z" fill="url(#paint0_linear_429_2373)"/>

</symbol></svg>