<svg width="22" height="22" fill="none" xmlns="http://www.w3.org/2000/svg"><path d="M20.166 5.317a7.782 7.782 0 01-2.163.586 3.786 3.786 0 001.66-2.08c-.74.44-1.55.75-2.393.916a3.759 3.759 0 00-6.417 3.428 10.67 10.67 0 01-7.746-3.932 3.813 3.813 0 00-.504 1.897 3.749 3.749 0 001.668 3.126 3.712 3.712 0 01-1.705-.467v.046a3.758 3.758 0 003.025 3.666c-.327.1-.666.152-1.008.156a4.478 4.478 0 01-.706-.064 3.768 3.768 0 003.511 2.603 7.535 7.535 0 01-5.555 1.559 10.606 10.606 0 005.766 1.695A10.623 10.623 0 0018.333 7.746V7.26a7.727 7.727 0 001.833-1.943z" fill="#FEFEFE"/></svg>