<svg width="50" height="50" fill="none" xmlns="http://www.w3.org/2000/svg"><path fill="#fff" d="M0 0h50v50H0z"/><path d="M25.625 25.458a10.25 10.25 0 003.541-7.75 10.417 10.417 0 10-20.833 0 10.25 10.25 0 003.542 7.75 16.667 16.667 0 00-9.792 15.167 2.083 2.083 0 004.167 0 12.5 12.5 0 0125 0 2.083 2.083 0 004.166 0 16.667 16.667 0 00-9.791-15.167zm-6.875-1.5a6.25 6.25 0 110-12.499 6.25 6.25 0 010 12.5zm20.291.667A10.417 10.417 0 0031.25 7.292a2.083 2.083 0 100 4.166 6.25 6.25 0 016.25 6.25 6.25 6.25 0 01-3.125 5.396 2.083 2.083 0 00-.105 3.542l.813.541.27.146a14.582 14.582 0 018.334 13.292 2.083 2.083 0 004.167 0 18.75 18.75 0 00-8.813-16z" fill="url(#paint0_linear_429_2373)"/><defs><linearGradient id="paint0_linear_429_2373" x1="24.969" y1="7.292" x2="24.969" y2="42.708" gradientUnits="userSpaceOnUse"><stop stop-color="#AFF1D1"/><stop offset="1" stop-color="#006493"/></linearGradient></defs></svg>