<svg width="38" height="33" viewBox="0 0 38 33" fill="none" xmlns="http://www.w3.org/2000/svg">
<path d="M37.3501 0C27.1321 0 22.255 6.12738 17.7655 12.956L17.7075 13.0427L17.7945 13.1005L19.5423 14.2403L19.6293 14.2981L19.6873 14.2114C24.77 6.48194 29.0908 2.29284 37.3475 2.29284H37.4529V2.18779V0.105055V0H37.3501V0Z" fill="#2CAD85"/>
<path d="M37.3503 24.8745C29.0936 24.8745 24.7728 20.6854 19.6901 12.9559L19.6532 12.8981H19.6506C18.6936 11.4431 17.5469 9.7543 16.2762 8.18109C16.1918 8.07603 16.1075 7.9736 16.0205 7.86854L15.9045 7.72672C12.7674 3.97885 9.50371 1.74379 5.63372 0.695857L5.23565 0.588175C4.86657 0.498877 4.57922 0.435844 4.30505 0.385942L4.18115 0.362305V0.488373V22.9047V23.0097H4.2866H5.98961C9.10828 23.0097 11.6206 23.1358 13.7481 23.7582C15.2164 24.1863 16.6637 24.9112 18.0504 25.9145L18.6646 26.3584L18.8834 26.516L18.8307 26.2533C18.2349 23.2934 15.8017 22.0406 14.4018 21.5573C11.9475 20.8403 9.14782 20.7274 6.48259 20.7142V3.35902C8.92111 4.28614 11.0723 5.83046 13.2445 8.20735L13.2867 8.25462L13.3131 8.28351C13.437 8.42009 13.5609 8.55929 13.6822 8.69849C13.8351 8.87445 13.988 9.05042 14.1382 9.23427C14.3649 9.50741 14.589 9.78056 14.7999 10.0485C14.8895 10.1588 14.9739 10.2691 15.0583 10.382C15.1479 10.4976 15.2323 10.6079 15.3166 10.7182L15.4563 10.9047C15.5565 11.036 15.6567 11.1725 15.7569 11.3117L15.8808 11.4798C15.9678 11.6007 16.0548 11.7215 16.1444 11.8475C16.3342 12.1128 16.5398 12.4043 16.7692 12.7379C16.7771 12.751 16.7903 12.7694 16.8035 12.7904L16.8166 12.8088C17.1936 13.3656 17.4862 13.8016 17.7578 14.2192L17.7894 14.2664H17.792C22.2736 21.0741 27.1507 27.1752 37.345 27.1752H37.4505V27.0701V24.9874V24.8823H37.3503V24.8745Z" fill="url(#paint0_linear_0_1)"/>
<path d="M28.0469 27.0624C27.0452 26.587 26.0671 26.0144 25.1339 25.3579L25.097 25.3316L25.0522 25.3421C24.7464 25.4078 24.4801 25.476 24.2376 25.547C21.6883 26.2928 19.7191 27.958 18.7278 28.935C17.7392 27.958 15.7673 26.2928 13.2181 25.547C11.3095 24.9902 8.94739 24.8746 5.98689 24.8746H2.30143V0.194353V0.0971764L2.20653 0.0892975C1.52111 0.0288904 0.814597 0 0.105449 0H0V0.105055V26.0302V27.065V27.1701H0.105449H5.98953C9.25583 27.1701 11.1618 27.3382 12.5722 27.7505C15.6302 28.6435 17.7366 31.2331 17.8236 31.3434L18.6461 32.3861L18.7278 32.4911L18.8095 32.3861L19.6321 31.3434C19.6531 31.3171 21.7911 28.6566 24.8834 27.7531C25.7112 27.5115 26.7051 27.3565 28.0074 27.2672L28.4081 27.241L28.0469 27.0624Z" fill="url(#paint1_linear_0_1)"/>
<path opacity="0.87" d="M29.8711 7.24609V19.9184" stroke="#2CAD85" stroke-width="3.3" stroke-miterlimit="10" stroke-linecap="round"/>
<path opacity="0.87" d="M34.7241 5.26367V21.9045" stroke="#2CAD85" stroke-width="3.3" stroke-miterlimit="10" stroke-linecap="round"/>
<path opacity="0.87" d="M25.0151 10.834V16.3337" stroke="#2CAD85" stroke-width="3.3" stroke-miterlimit="10" stroke-linecap="round"/>
<defs>
<linearGradient id="paint0_linear_0_1" x1="4.18118" y1="13.7646" x2="37.4555" y2="13.7646" gradientUnits="userSpaceOnUse">
<stop stop-color="#006493"/>
<stop offset="0.6408" stop-color="#09A980"/>
<stop offset="1" stop-color="#09AC7F"/>
</linearGradient>
<linearGradient id="paint1_linear_0_1" x1="-0.000210899" y1="16.2425" x2="28.4086" y2="16.2425" gradientUnits="userSpaceOnUse">
<stop stop-color="#006493"/>
<stop offset="0.6408" stop-color="#09A980"/>
<stop offset="1" stop-color="#09AC7F"/>
</linearGradient>
</defs>
</svg>
