<svg width="38" height="33" fill="none" xmlns="http://www.w3.org/2000/svg"><path d="M37.35 0C27.132 0 22.255 6.127 17.765 12.956l-.058.087.087.058 1.748 1.14.087.057.058-.087c5.083-7.73 9.404-11.918 17.66-11.918h.106V0h-.103z" fill="#2CAD85"/><path d="M37.35 24.875c-8.256 0-12.577-4.19-17.66-11.92l-.037-.057h-.002c-.957-1.455-2.104-3.144-3.375-4.717a27.012 27.012 0 00-.256-.312l-.115-.142C12.767 3.979 9.504 1.744 5.633.696L5.236.588a16.38 16.38 0 00-.931-.202L4.181.362V23.01H5.99c3.118 0 5.63.126 7.758.748 1.468.428 2.916 1.153 4.302 2.157l.615.443.218.158-.052-.263c-.596-2.96-3.03-4.212-4.43-4.696-2.454-.717-5.253-.83-7.918-.843V3.36c2.438.927 4.59 2.471 6.762 4.848l.042.048.026.029a27.91 27.91 0 01.825.95 40.85 40.85 0 011.179 1.484l.14.187c.1.131.2.268.3.407l.124.168.263.367c.19.266.396.557.625.89.008.014.021.032.035.053l.013.019c.377.557.67.993.94 1.41l.032.047h.003c4.482 6.808 9.359 12.91 19.553 12.91h.105v-2.294h-.1v-.008z" fill="url(#paint0_linear_0_1)"/><path d="M28.047 27.062a19.924 19.924 0 01-2.913-1.704l-.037-.026-.045.01a11.44 11.44 0 00-.814.205c-2.55.746-4.519 2.411-5.51 3.388-.989-.977-2.96-2.642-5.51-3.388-1.909-.557-4.27-.672-7.231-.672H2.3V.097L2.207.09C1.52.03.815 0 .105 0H0v27.17h5.99c3.266 0 5.172.168 6.582.58 3.058.893 5.165 3.483 5.252 3.593l.822 1.043.082.105.081-.105.823-1.043c.021-.026 2.16-2.686 5.251-3.59.828-.241 1.822-.396 3.124-.486l.401-.026-.361-.179z" fill="url(#paint1_linear_0_1)"/><path opacity=".87" d="M29.871 7.246v12.672m4.853-14.654v16.64m-9.709-11.07v5.5" stroke="#2CAD85" stroke-width="3.3" stroke-miterlimit="10" stroke-linecap="round"/><defs><linearGradient id="paint0_linear_0_1" x1="4.181" y1="13.765" x2="37.456" y2="13.765" gradientUnits="userSpaceOnUse"><stop stop-color="#006493"/><stop offset=".641" stop-color="#09A980"/><stop offset="1" stop-color="#09AC7F"/></linearGradient><linearGradient id="paint1_linear_0_1" x1="0" y1="16.242" x2="28.409" y2="16.242" gradientUnits="userSpaceOnUse"><stop stop-color="#006493"/><stop offset=".641" stop-color="#09A980"/><stop offset="1" stop-color="#09AC7F"/></linearGradient></defs></svg>